<?xml version="1.0" standalone="no"?>
<!DOCTYPE svg PUBLIC "-//W3C//DTD SVG 20010904//EN"
 "http://www.w3.org/TR/2001/REC-SVG-20010904/DTD/svg10.dtd">
<svg version="1.0" xmlns="http://www.w3.org/2000/svg"
 width="1600.000000pt" height="1600.000000pt" viewBox="0 0 1600.000000 1600.000000"
 preserveAspectRatio="xMidYMid meet">
<metadata>
Created by potrace 1.11, written by Peter Selinger 2001-2013
</metadata>
<g transform="translate(0.000000,1600.000000) scale(0.100000,-0.100000)"
fill="#000000" stroke="none">
<path d="M6044 11693 c-43 -8 -94 -16 -113 -18 -18 -3 -42 -10 -52 -16 -10 -5
-19 -7 -19 -5 0 10 -174 -56 -265 -100 -92 -45 -119 -59 -193 -107 -188 -121
-415 -356 -520 -537 -14 -25 -30 -48 -35 -51 -5 -3 -9 -10 -9 -15 0 -5 -14
-36 -30 -69 -49 -100 -108 -269 -123 -350 -2 -11 -6 -29 -8 -40 -21 -89 -29
-352 -14 -470 15 -113 59 -281 97 -370 105 -244 237 -432 427 -605 57 -53 140
-120 147 -120 4 0 19 -11 34 -25 15 -14 30 -25 34 -25 4 0 31 -15 60 -34 48
-30 198 -106 223 -112 6 -2 50 -17 98 -34 49 -17 101 -33 115 -35 15 -2 27 -4
27 -5 0 -2 34 -9 70 -14 17 -3 30 -5 30 -6 0 -4 125 -12 200 -13 118 0 223 11
310 35 22 5 50 12 63 14 37 7 203 70 272 104 70 34 83 41 147 83 23 15 44 27
48 27 17 0 182 137 265 220 264 263 423 575 468 920 8 61 7 335 -2 390 -31
207 -112 428 -218 598 -94 150 -261 340 -378 432 -25 19 -46 38 -48 42 -2 4
-10 8 -18 8 -8 0 -14 5 -14 10 0 6 -7 10 -15 10 -8 0 -15 4 -15 8 0 5 -19 19
-42 32 -24 12 -50 29 -58 36 -56 47 -360 168 -475 190 -22 4 -47 9 -55 10 -98
21 -310 24 -416 7z m300 -77 c43 -4 82 -8 86 -11 3 -2 21 -7 38 -10 17 -3 44
-10 59 -17 15 -6 36 -13 47 -15 33 -6 159 -76 216 -119 66 -50 141 -128 200
-209 43 -58 141 -246 154 -295 4 -14 11 -34 16 -45 25 -55 75 -269 85 -360 3
-27 8 -61 11 -75 24 -117 23 -610 -1 -725 -2 -11 -7 -38 -10 -60 -9 -73 -16
-109 -36 -190 -80 -324 -220 -562 -420 -713 -50 -38 -205 -117 -247 -127 -9
-2 -46 -12 -82 -20 -36 -9 -112 -18 -170 -21 -58 -2 -107 -4 -110 -5 -3 -1 -9
0 -15 1 -5 1 -32 4 -59 6 -71 6 -168 30 -244 61 -73 29 -165 80 -170 94 -2 5
-8 9 -13 9 -15 0 -59 40 -150 137 -40 43 -92 116 -124 178 -12 22 -27 50 -33
60 -6 11 -18 38 -28 60 -9 22 -20 49 -24 60 -34 81 -95 303 -86 312 3 3 1 13
-4 22 -5 9 -12 44 -15 76 -4 33 -9 74 -11 90 -23 154 -22 584 1 704 2 13 7 47
10 76 6 44 26 144 50 239 28 114 112 315 164 392 17 25 31 49 31 55 0 5 4 9 8
9 4 0 15 12 24 28 43 70 171 183 279 246 43 24 169 73 214 82 55 11 75 14 130
19 32 3 60 7 62 8 2 3 60 0 167 -7z"/>
<path d="M2757 11653 c-2 -1 -146 -4 -320 -5 -174 -2 -317 -4 -317 -4 0 -1 15
-35 34 -75 59 -130 64 -143 86 -221 21 -77 25 -100 38 -198 10 -77 9 -1999 -1
-2088 -4 -40 -10 -78 -12 -85 -3 -7 -6 -23 -9 -37 -12 -74 -48 -172 -111 -305
-13 -27 -22 -52 -19 -54 7 -7 1187 -3 1279 4 143 11 236 24 290 39 6 2 28 6
50 11 22 4 46 12 53 18 6 5 12 7 12 3 0 -3 16 0 35 8 20 9 37 16 40 16 38 7
157 67 230 116 162 109 284 294 310 470 4 21 8 50 11 64 6 39 6 171 -1 215
-16 100 -22 124 -52 195 -34 81 -47 103 -102 171 -63 76 -128 129 -218 176
-96 50 -181 81 -292 104 -42 9 -66 19 -44 19 6 0 28 8 49 17 22 9 41 17 44 18
3 0 32 15 66 32 105 54 205 141 268 233 36 52 85 149 91 179 1 9 8 34 13 56
53 199 17 445 -87 585 -60 82 -170 168 -268 211 -61 27 -183 69 -183 64 0 -3
-12 0 -27 6 -16 6 -41 12 -58 14 -16 2 -46 6 -65 9 -19 4 -51 9 -70 13 -36 6
-737 12 -743 6z m551 -89 c20 -4 40 -7 43 -6 15 3 168 -57 205 -80 53 -34 144
-119 144 -135 0 -7 4 -13 8 -13 14 0 75 -132 87 -187 2 -10 8 -38 13 -62 18
-78 8 -315 -17 -411 -37 -140 -113 -277 -183 -328 -9 -7 -23 -19 -31 -26 -17
-17 -88 -54 -140 -72 -65 -23 -128 -27 -402 -28 l-260 -1 -3 661 -2 661 62 13
c35 7 90 15 123 17 33 3 61 6 62 7 7 6 258 -3 291 -10z m-4 -1435 c151 -3 283
-42 381 -113 89 -65 178 -199 210 -316 37 -135 47 -271 31 -415 -17 -149 -70
-278 -160 -390 -69 -85 -204 -166 -337 -200 -91 -24 -99 -25 -244 -29 -148 -3
-284 10 -372 36 l-43 12 0 707 0 708 23 3 c21 3 305 2 511 -3z"/>
<path d="M11566 11653 c-2 -2 -117 -5 -257 -7 -211 -2 -253 -5 -251 -17 2 -8
28 -63 58 -123 30 -60 54 -118 54 -128 0 -11 4 -27 9 -36 10 -19 18 -68 28
-162 9 -88 8 -2010 0 -2130 -11 -143 -37 -234 -108 -369 -27 -52 -47 -96 -44
-99 7 -7 1185 -5 1305 2 141 8 237 21 390 51 113 23 401 127 419 153 4 4 31
20 61 36 30 16 57 32 60 35 3 3 25 19 49 36 127 86 300 299 378 465 54 114
105 281 119 385 1 11 3 20 4 20 12 0 24 178 25 350 0 237 -8 310 -56 494 -115
446 -409 766 -854 931 -60 22 -192 60 -230 66 -11 1 -45 8 -75 14 -30 6 -73
13 -95 15 -22 3 -56 8 -75 11 -35 7 -907 13 -914 7z m794 -87 c14 -4 48 -9 75
-12 28 -4 52 -9 55 -13 3 -3 14 -6 25 -5 11 0 49 -11 85 -24 36 -13 73 -25 82
-27 26 -6 154 -78 203 -115 51 -38 166 -161 202 -215 61 -91 153 -297 168
-375 1 -3 4 -18 8 -35 4 -16 10 -40 12 -52 3 -13 7 -32 10 -43 11 -44 15 -65
20 -119 4 -31 9 -67 11 -81 24 -122 23 -680 0 -750 -2 -8 -7 -39 -11 -68 -3
-30 -10 -75 -16 -100 -6 -26 -13 -57 -15 -69 -2 -12 -9 -35 -15 -50 -6 -16
-13 -41 -16 -58 -3 -16 -9 -31 -14 -33 -5 -2 -9 -10 -9 -18 0 -32 -114 -244
-131 -244 -5 0 -9 -4 -9 -10 0 -16 -46 -65 -144 -155 -24 -23 -124 -83 -179
-109 -56 -26 -231 -87 -245 -85 -4 1 -10 0 -14 -1 -15 -5 -23 -6 -73 -13 -127
-19 -229 -25 -511 -32 -166 -4 -213 -3 -216 7 -7 22 -2 2893 5 2904 7 12 608
11 657 0z"/>
<path d="M7980 11640 c0 -3 14 -16 32 -30 47 -37 140 -130 170 -170 55 -73 96
-172 114 -271 10 -54 12 -1934 2 -1997 -4 -31 -11 -73 -13 -92 -10 -63 -46
-174 -81 -245 -39 -79 -41 -82 -106 -182 -27 -40 -48 -73 -48 -75 0 -4 641 -1
645 4 2 2 -25 41 -61 88 -35 47 -64 91 -64 98 0 6 -3 12 -7 12 -22 0 -116 220
-129 300 -23 145 -24 182 -29 765 -3 314 -7 744 -9 958 -2 213 -1 387 3 387 3
-1 29 -33 56 -72 28 -39 55 -76 60 -82 6 -6 21 -28 35 -48 14 -21 28 -38 33
-38 4 0 7 -6 7 -14 0 -8 3 -16 8 -18 4 -1 32 -37 62 -78 30 -41 58 -79 63 -85
4 -5 47 -64 95 -130 93 -126 230 -312 262 -355 10 -14 58 -79 107 -145 48 -66
91 -121 95 -123 5 -2 8 -8 8 -13 0 -8 51 -80 70 -99 3 -3 16 -22 30 -42 14
-21 28 -38 33 -38 4 0 7 -5 7 -11 0 -6 11 -25 25 -43 14 -17 29 -35 33 -41 4
-5 29 -38 55 -73 26 -34 47 -64 47 -67 0 -4 17 -27 45 -59 6 -6 26 -34 44 -61
19 -28 38 -52 41 -55 3 -3 22 -27 41 -55 18 -27 36 -52 39 -55 3 -3 17 -21 30
-40 13 -19 27 -37 30 -40 3 -3 30 -39 60 -80 30 -41 90 -124 135 -185 45 -60
101 -137 125 -170 24 -33 48 -64 52 -70 5 -5 29 -38 54 -72 48 -66 49 -66 104
-63 19 2 49 4 65 5 l30 2 2 1194 c1 1085 3 1261 16 1324 3 11 8 38 11 60 17
94 89 268 149 359 48 74 77 121 77 126 0 7 -587 6 -595 -1 -3 -4 17 -40 45
-82 68 -101 136 -247 160 -343 20 -76 25 -103 36 -202 2 -26 7 -260 9 -519 2
-260 6 -477 10 -483 3 -5 3 -10 -2 -10 -4 0 -7 -24 -5 -52 2 -29 3 -71 2 -93
0 -22 0 -44 0 -50 5 -285 4 -527 -2 -531 -4 -3 -8 2 -8 10 0 9 -4 16 -10 16
-5 0 -16 13 -25 29 -8 16 -20 35 -28 43 -7 7 -26 31 -42 53 -17 22 -36 46 -42
53 -7 7 -13 17 -13 22 0 5 -6 15 -13 22 -11 11 -104 136 -184 247 -10 14 -35
46 -55 73 -21 26 -38 52 -38 57 0 5 -4 11 -8 13 -7 2 -228 300 -282 378 -8 12
-23 32 -34 43 -10 12 -26 33 -35 47 -9 14 -58 81 -109 150 -51 69 -100 134
-108 145 -7 11 -43 60 -79 108 -36 48 -65 91 -65 94 0 3 -6 11 -13 17 -8 6
-56 70 -108 141 -51 72 -97 135 -102 140 -4 6 -84 114 -178 240 l-170 230
-334 0 c-184 0 -335 -2 -335 -5z"/>
<path d="M925 7510 c-11 -4 -23 -6 -28 -3 -4 2 -31 0 -60 -6 -28 -6 -65 -13
-81 -15 -25 -5 -138 -38 -176 -53 -8 -4 -17 -7 -20 -8 -14 -4 -86 -41 -90 -46
-3 -3 -18 -13 -35 -22 -16 -9 -43 -28 -60 -42 -16 -15 -41 -37 -55 -49 -28
-23 -100 -110 -100 -119 0 -3 -11 -22 -23 -41 -22 -31 -63 -142 -72 -191 -47
-269 -5 -485 128 -665 126 -171 270 -270 707 -490 102 -51 188 -98 192 -104 4
-6 8 -8 8 -4 0 5 30 -12 66 -37 36 -25 69 -45 75 -45 5 0 9 -3 9 -8 0 -4 11
-14 26 -23 41 -25 139 -125 183 -189 23 -33 39 -60 35 -60 -3 0 -1 -6 5 -14
17 -20 50 -113 59 -161 9 -54 8 -209 -2 -264 -11 -65 -51 -166 -82 -209 -42
-56 -117 -132 -131 -132 -7 0 -13 -4 -13 -9 0 -14 -137 -68 -199 -79 -58 -11
-227 -9 -276 3 -16 4 -37 8 -45 10 -8 2 -16 4 -17 5 -2 2 -6 3 -10 4 -81 19
-229 100 -311 170 -103 88 -224 224 -291 326 -20 30 -44 64 -53 74 -10 11 -18
25 -18 32 0 7 -3 14 -7 16 -9 3 -23 27 -84 136 -29 50 -47 72 -60 72 -17 0
-19 -5 -14 -57 4 -32 8 -74 10 -93 1 -19 6 -55 9 -80 3 -25 8 -72 12 -105 3
-33 7 -71 9 -85 2 -14 6 -54 9 -90 4 -36 9 -81 12 -100 2 -19 7 -64 10 -100 2
-35 10 -68 17 -72 7 -4 50 -19 97 -34 47 -14 92 -28 100 -31 8 -4 20 -7 27 -9
7 -1 42 -10 79 -19 80 -20 102 -25 129 -29 11 -2 40 -7 65 -11 25 -4 61 -9 80
-10 19 -2 35 -4 35 -5 0 -9 364 -13 420 -5 17 2 46 6 65 8 19 3 53 8 75 13 22
4 42 9 45 9 77 16 188 52 208 67 6 6 12 8 12 4 0 -6 121 53 130 63 3 4 23 18
45 32 74 48 215 197 215 227 0 6 3 12 8 14 11 5 69 130 76 163 3 11 9 42 15
68 23 100 33 277 19 327 -4 14 -9 46 -12 72 -2 26 -7 51 -10 56 -3 5 -7 19
-10 33 -36 172 -197 375 -411 516 -84 55 -154 93 -435 234 -135 67 -246 126
-248 131 -2 4 -8 8 -14 8 -10 0 -141 82 -168 105 -186 160 -256 304 -250 515
1 41 6 85 10 85 1 0 3 9 4 20 8 50 50 135 92 183 40 45 133 111 169 119 5 1
21 5 35 8 57 14 78 16 140 17 125 1 219 -25 332 -93 77 -45 203 -165 269 -254
24 -33 47 -61 52 -63 4 -2 7 -8 7 -13 0 -5 16 -32 35 -59 19 -28 32 -50 29
-50 -4 0 0 -8 8 -17 9 -10 44 -71 78 -136 45 -86 67 -117 79 -115 19 4 19 9
-3 213 -3 22 -7 67 -11 100 -3 33 -8 74 -10 90 -8 63 -19 171 -19 198 -1 15
-3 27 -6 27 -3 0 -6 28 -7 62 -2 34 -7 66 -12 71 -9 9 -185 65 -231 73 -20 4
-58 12 -90 19 -3 1 -30 5 -60 9 -30 5 -64 10 -75 13 -35 8 -350 10 -370 3z"/>
<path d="M2391 7450 c-4 -3 -13 -39 -20 -80 -7 -41 -15 -86 -17 -100 -22 -116
-34 -178 -38 -196 -2 -12 -7 -39 -10 -60 -3 -22 -8 -50 -11 -64 -10 -47 -15
-75 -20 -105 -3 -16 -12 -64 -20 -105 -26 -133 -27 -143 -13 -151 19 -13 28
-11 28 5 0 8 4 16 8 18 5 2 30 35 57 73 26 39 58 84 69 100 12 17 23 32 26 35
3 3 16 22 30 42 14 21 28 38 33 38 4 0 7 7 7 15 0 8 5 15 10 15 6 0 10 6 10
14 0 8 3 16 8 18 4 2 23 23 42 48 19 25 39 50 45 56 5 7 26 31 45 55 65 82
193 199 245 223 46 22 67 25 255 31 113 3 217 7 232 9 15 2 29 -2 31 -8 6 -19
0 -2429 -7 -2491 -4 -33 -9 -67 -11 -75 -2 -8 -7 -31 -10 -50 -14 -85 -36
-147 -101 -289 -19 -40 -34 -75 -34 -77 0 -2 185 -4 410 -4 388 0 410 1 401
18 -24 42 -92 191 -96 208 -3 10 -12 44 -20 74 -21 73 -31 132 -41 240 -7 77
-6 2439 1 2450 3 6 10 8 14 6 4 -3 95 -7 202 -11 106 -3 210 -7 230 -9 41 -4
109 -34 109 -47 0 -5 6 -9 13 -9 11 0 151 -138 187 -186 8 -10 31 -39 51 -64
20 -25 89 -117 153 -205 63 -88 124 -171 136 -185 11 -14 20 -28 20 -32 0 -4
11 -19 25 -34 20 -21 28 -24 39 -15 10 9 12 21 5 49 -8 35 -42 219 -54 291 -3
19 -7 37 -9 40 -2 3 -7 31 -11 61 -4 30 -9 58 -11 61 -2 4 -6 22 -9 40 -5 36
-9 61 -25 144 -15 76 -22 118 -25 143 -2 13 -6 27 -10 30 -8 8 -2543 10 -2554
2z"/>
<path d="M5370 7451 c0 -2 17 -41 39 -85 70 -146 104 -271 119 -431 8 -94 8
-1930 -1 -2025 -14 -167 -53 -304 -127 -450 -17 -33 -30 -62 -30 -65 0 -3 185
-5 410 -5 l410 0 -25 50 c-14 27 -25 51 -24 52 0 2 -11 26 -24 53 -24 46 -64
173 -71 220 -2 11 -6 38 -10 60 -15 87 -25 622 -12 643 3 6 2 13 -2 16 -10 6
-8 48 2 65 4 5 2 12 -2 15 -10 6 -8 48 2 65 4 5 2 12 -2 15 -8 5 -9 29 -2 61
1 6 1 13 0 18 -2 9 -2 85 0 95 1 4 1 17 1 29 -2 21 -1 21 181 20 l183 -2 51
-100 c28 -55 121 -238 207 -407 86 -169 161 -316 166 -325 30 -59 85 -167 198
-390 l128 -253 372 0 c329 0 371 2 369 15 -1 9 -22 26 -47 39 -25 12 -66 37
-93 55 -58 40 -166 149 -166 167 0 8 -4 14 -8 14 -5 0 -17 16 -28 35 -10 19
-22 35 -26 35 -5 0 -8 4 -8 10 0 5 -13 31 -28 57 -16 26 -69 127 -118 223 -49
96 -92 177 -96 178 -5 2 -8 9 -8 15 0 7 -33 75 -73 153 -39 77 -115 224 -167
327 -52 102 -100 196 -107 209 -11 21 -9 24 45 46 89 37 97 40 102 38 3 0 12
5 20 12 8 7 49 34 90 61 111 73 173 136 238 247 39 66 80 187 90 261 10 85 6
251 -8 303 -7 25 -14 53 -16 63 -6 34 -54 129 -85 170 -54 71 -162 167 -188
167 -5 0 -11 3 -13 8 -5 11 -139 72 -170 78 -5 1 -9 2 -10 4 -2 1 -11 3 -21 5
-10 2 -26 7 -35 11 -9 4 -24 8 -32 10 -8 2 -31 6 -50 10 -19 5 -39 9 -45 9 -5
1 -35 5 -65 10 -30 4 -68 10 -85 12 -42 6 -1295 10 -1295 4z m1150 -93 c0 -5
4 -7 8 -4 4 3 26 0 48 -5 21 -5 49 -12 62 -15 34 -7 130 -54 143 -70 6 -8 16
-14 22 -14 12 0 49 -39 93 -95 49 -64 89 -174 101 -275 14 -117 5 -355 -17
-430 -5 -16 -6 -30 -4 -30 3 0 2 -6 -3 -12 -4 -7 -8 -15 -8 -18 -2 -24 -29
-100 -36 -100 -5 0 -9 -7 -9 -16 0 -25 -63 -116 -114 -165 -60 -56 -126 -95
-209 -120 -99 -30 -112 -31 -354 -35 l-223 -4 0 42 c-1 53 -1 1193 0 1301 l0
78 250 -2 c138 -1 250 -6 250 -11z"/>
<path d="M8075 7451 c-2 -2 0 -11 5 -20 25 -48 87 -210 95 -251 2 -8 8 -27 14
-42 6 -16 9 -28 7 -28 -2 0 2 -21 10 -47 26 -86 29 -205 29 -1158 0 -923 -2
-1009 -26 -1111 -6 -27 -12 -58 -15 -68 -7 -39 -48 -153 -85 -243 l-38 -93
1074 0 c1014 0 1074 1 1079 18 3 9 7 28 10 42 4 26 5 27 35 160 11 47 22 96
25 110 3 14 7 34 10 45 8 34 48 219 52 240 2 11 12 54 22 95 34 144 17 163
-57 63 -260 -346 -458 -539 -644 -626 -32 -15 -63 -27 -71 -27 -7 0 -16 -3
-20 -7 -7 -7 -17 -10 -86 -18 -46 -6 -107 -8 -125 -5 -5 1 -14 1 -20 0 -5 -2
-39 -4 -75 -5 -59 -2 -288 -12 -477 -20 -40 -2 -74 0 -74 3 -1 4 -2 328 -3
720 l-1 712 35 1 c91 3 348 0 370 -4 104 -19 209 -106 400 -330 121 -143 113
-168 112 383 0 256 -1 468 -1 472 -1 5 -9 7 -20 5 -19 -3 -45 -28 -96 -93 -44
-56 -156 -186 -181 -209 -55 -51 -85 -75 -93 -75 -5 0 -11 -3 -13 -7 -5 -13
-71 -42 -113 -50 -30 -6 -365 -9 -395 -4 -3 1 -5 319 -5 707 l0 706 160 -7
c397 -15 550 -22 575 -27 21 -5 94 -43 122 -65 32 -25 300 -293 293 -293 -3 0
4 -11 17 -24 13 -13 48 -52 78 -87 134 -154 163 -184 182 -185 21 -1 21 18 -2
116 -6 25 -12 56 -15 70 -3 14 -9 43 -15 65 -14 58 -58 265 -65 302 -3 18 -10
44 -15 58 -5 14 -9 29 -8 33 1 4 -4 30 -10 57 l-13 50 -965 0 c-531 0 -967 -2
-969 -4z"/>
<path d="M10675 7452 c-2 -2 8 -31 22 -65 33 -81 91 -250 96 -279 2 -13 6 -30
10 -38 27 -74 31 -200 31 -1145 0 -1033 0 -1038 -50 -1220 -24 -88 -35 -119
-69 -200 -10 -22 -17 -41 -17 -42 1 -2 -5 -18 -14 -38 l-14 -35 1075 0 c591 0
1075 3 1076 8 1 15 9 54 30 144 12 51 25 111 30 133 11 55 58 265 64 290 3 11
8 36 11 55 3 19 8 38 9 41 2 3 11 39 19 79 23 109 -1 119 -66 26 -112 -161
-307 -381 -429 -485 -98 -82 -105 -87 -204 -135 -95 -47 -153 -63 -223 -62
-23 1 -42 -1 -42 -4 0 -3 -42 -6 -93 -6 -50 -1 -177 -5 -282 -9 -104 -4 -219
-8 -255 -9 l-65 -1 -1 718 -2 717 22 1 c11 0 101 1 199 1 196 -1 223 -6 306
-60 49 -33 179 -155 225 -213 67 -84 131 -149 145 -149 13 0 18 10 20 43 6 87
6 117 1 117 -3 0 -4 26 -3 58 4 77 3 134 -3 144 -3 4 0 8 6 8 6 0 8 5 4 11
-10 16 -11 149 -1 149 5 0 5 5 1 11 -9 15 -11 149 -2 149 4 0 5 7 1 16 -3 9
-6 66 -7 127 -1 77 -5 112 -13 114 -15 5 -60 -39 -138 -137 -54 -68 -190 -210
-226 -235 -84 -60 -120 -67 -342 -69 -160 -1 -188 1 -191 14 -3 8 -4 327 -4
708 l0 693 142 -5 c77 -3 206 -8 286 -12 80 -3 177 -7 215 -8 89 -3 148 -21
183 -53 7 -7 17 -13 22 -13 16 0 330 -320 330 -335 0 -2 10 -15 23 -27 12 -13
39 -44 60 -68 143 -167 168 -188 180 -157 3 7 -17 110 -43 229 -27 119 -51
229 -53 244 -3 16 -8 36 -11 44 -3 8 -7 31 -10 51 -3 20 -10 47 -15 60 -10 28
-11 32 -11 62 -1 55 62 52 -980 52 -529 0 -963 -1 -965 -3z"/>
<path d="M13280 7440 c-4 -8 -8 -18 -8 -23 0 -9 -13 -85 -19 -112 -2 -11 -6
-29 -7 -40 -2 -11 -6 -36 -10 -55 -4 -19 -9 -48 -11 -65 -2 -16 -4 -30 -5 -30
-1 0 -3 -9 -5 -20 -2 -11 -7 -36 -10 -55 -4 -19 -9 -46 -11 -60 -2 -14 -7 -36
-10 -50 -3 -13 -7 -38 -10 -55 -2 -16 -6 -41 -9 -55 -3 -14 -8 -41 -11 -60 -4
-19 -8 -44 -11 -55 -2 -11 -6 -36 -9 -55 -3 -19 -8 -38 -10 -42 -3 -4 4 -12
15 -17 16 -9 26 0 77 74 33 47 94 134 137 193 43 59 85 118 95 132 9 14 19 27
22 30 3 3 25 30 50 60 55 67 112 130 165 180 107 102 123 107 385 115 118 3
217 8 220 10 16 10 29 -16 32 -68 2 -31 1 -57 -2 -57 -3 0 -5 -29 -5 -65 0
-36 2 -65 5 -65 3 0 4 -26 3 -57 -3 -111 -3 -228 0 -260 2 -18 -1 -33 -6 -33
-4 0 -5 -5 -2 -11 4 -5 6 -51 5 -102 -2 -88 -1 -119 4 -179 1 -16 -2 -28 -7
-28 -4 0 -5 -5 -2 -11 4 -5 6 -51 5 -102 -2 -88 -1 -119 4 -179 1 -16 -2 -28
-7 -28 -4 0 -5 -5 -2 -11 4 -5 6 -51 5 -102 -2 -88 -1 -119 4 -179 1 -16 0
-28 -3 -28 -3 0 -4 -37 -1 -82 3 -46 3 -109 0 -140 -3 -31 -3 -66 0 -78 3 -12
3 -51 0 -86 -3 -35 -3 -64 0 -64 5 0 5 -27 -5 -310 -7 -209 -9 -242 -26 -302
-6 -24 -13 -52 -15 -62 -8 -43 -39 -126 -78 -206 -22 -47 -42 -88 -44 -92 -2
-5 181 -8 407 -8 226 0 411 2 411 5 0 3 -14 33 -31 67 -32 64 -36 73 -64 143
-27 66 -55 194 -62 285 -4 47 -8 627 -8 1289 l0 1205 40 -1 c226 -7 396 -14
425 -19 52 -9 109 -47 189 -124 39 -38 71 -72 71 -74 0 -3 12 -18 26 -33 41
-44 154 -192 154 -202 0 -5 3 -11 8 -13 12 -5 72 -86 72 -97 0 -5 3 -11 8 -13
12 -5 92 -116 92 -128 0 -5 3 -10 8 -10 4 0 20 -20 35 -44 21 -34 32 -43 48
-39 16 4 19 11 14 32 -3 14 -8 40 -11 56 -4 29 -20 114 -30 163 -4 24 -9 49
-18 102 -3 19 -8 46 -10 60 -3 14 -10 50 -16 80 -6 30 -13 73 -16 94 -3 22 -7
43 -9 46 -2 4 -7 29 -11 56 -3 27 -8 52 -10 55 -2 4 -6 28 -9 55 -4 27 -11 53
-16 59 -7 7 -448 10 -1280 10 -1121 0 -1272 -2 -1279 -15z"/>
</g>
</svg>
