<?xml version="1.0" encoding="UTF-8"?>
<svg width="200px" height="93px" viewBox="0 0 200 93" version="1.1" xmlns="http://www.w3.org/2000/svg" xmlns:xlink="http://www.w3.org/1999/xlink">
    <!-- Generator: Sketch 53.2 (72643) - https://sketchapp.com -->
    <title>path-1</title>
    <desc>Created with Sketch.</desc>
    <g id="Page-1" stroke="none" stroke-width="1" fill="none" fill-rule="evenodd">
        <path d="M26.5183246,39.2766143 L26.5183246,39.1719023 C28.1937173,35.978185 28.6125654,34.0410122 28.6125654,29.8001745 L28.6125654,10.4284468 C28.6125654,6.1876091 28.1937173,4.2504363 26.5183246,1.056719 L26.5183246,0.952007 C34.2146597,0.952007 35.9947644,0.7425829 40.2356021,0.7425829 C51.5445026,0.7425829 53.5340314,5.7164049 53.5340314,9.6954625 C53.5340314,13.8315881 51.4397906,17.2870855 46.4136126,18.9624782 C53.1675393,20.1143106 55.5235602,24.1980803 55.5235602,28.595986 C55.5235602,34.5645724 51.1780105,39.2766143 40.2879581,39.2766143 L26.5183246,39.2766143 Z M40.7068063,18.8054101 C45.9947644,18.8054101 47.7748691,14.0933682 47.7748691,10.0095986 C47.7748691,4.7216405 44.7905759,1.7897033 39.3455497,1.7897033 C37.3036649,1.7897033 35.8376963,1.9467714 34.6335079,2.3132635 L34.6335079,18.8054101 L40.7068063,18.8054101 Z M39.5549738,38.2294939 C45.9947644,38.2294939 49.1884817,34.4598604 49.1884817,28.8577661 C49.1884817,23.622164 46.6230366,19.8525305 41.1780105,19.8525305 L34.6335079,19.8525305 L34.6335079,37.6012216 C35.8900524,37.9677138 37.513089,38.2294939 39.5549738,38.2294939 Z M77.8272251,40.0619546 C67.9842932,40.0619546 58.1413613,31.2661431 58.1413613,20.1666667 C58.1413613,9.0671902 67.9842932,0.1666667 77.8272251,0.1666667 C87.6701571,0.1666667 97.617801,9.0671902 97.617801,20.1666667 C97.617801,31.2661431 87.6701571,40.0619546 77.8272251,40.0619546 Z M77.8272251,39.0148342 C86.8848168,39.0148342 90.9685864,31.056719 90.9685864,20.1666667 C90.9685864,9.3813264 86.8848168,1.2137871 77.8272251,1.2137871 C68.8219895,1.2137871 64.7905759,9.3813264 64.7905759,20.1666667 C64.7905759,30.899651 68.8219895,39.0148342 77.8272251,39.0148342 Z M104.895288,6.4493892 L105.104712,28.8577661 C105.104712,33.569808 105.78534,35.5069808 108.717277,39.1719023 L108.717277,39.2766143 L100.65445,39.2766143 L100.65445,39.1719023 C103.272251,35.5593368 103.848168,33.517452 103.848168,28.8577661 L103.848168,8.3342059 C103.586387,4.8787086 102.696335,3.41274 99.7643979,1.056719 L99.7643979,0.952007 L108.141361,0.952007 L130.078534,30.7425829 L129.921466,11.3708551 C129.921466,6.7111693 129.240838,4.6692845 126.727749,1.056719 L126.727749,0.952007 L134.267016,0.952007 L134.267016,1.056719 C131.753927,4.7216405 131.073298,6.6588133 131.073298,11.3708551 L131.073298,39.2766143 L129.188482,39.4336824 L104.895288,6.4493892 Z M138.089005,39.1719023 C139.764398,36.3970332 140.183246,34.8263525 140.183246,31.2137871 L140.183246,9.0148342 C140.183246,5.4022688 139.764398,3.8315881 138.089005,1.056719 L138.089005,0.952007 C144.633508,0.952007 145.52356,0.7425829 152.434555,0.7425829 C165.471204,0.7425829 173.376963,7.5488656 173.376963,19.9572426 C173.376963,32.4703316 165.890052,39.2766143 152.434555,39.2766143 L138.089005,39.2766143 L138.089005,39.1719023 Z M146.204188,1.7897033 L146.204188,38.386562 L152.015707,38.2294939 C162.748691,37.9677138 166.727749,32.0514834 166.727749,20.6902269 C166.727749,7.7059337 161.963351,1.7897033 151.963351,1.7897033 L146.204188,1.7897033 Z M22.9842932,63.517452 L22.513089,63.67452 C18.8481675,55.925829 15.3926702,53.569808 11.6753927,53.569808 C8.11518325,53.569808 5.96858639,55.873473 5.96858639,59.433682 C5.96858639,64.407504 10.3664921,66.501745 15.026178,68.753054 C20.2094241,71.266143 25.5497382,73.988656 25.5497382,81.266143 C25.5497382,89.119546 19.2146597,92.417976 11.8324607,92.417976 C8.27225131,92.417976 4.55497382,91.684991 1.04712042,90.376091 L0,80.690227 L0.418848168,80.533159 C4.45026178,88.072426 8.53403141,91.370855 13.2984293,91.370855 C18.0628272,91.370855 20.3664921,88.02007 20.3664921,84.19808 C20.3664921,79.224258 16.5968586,76.711169 12.2513089,74.616928 C6.80628272,71.946771 1.30890052,69.32897 1.30890052,62.522688 C1.30890052,55.297557 7.12041885,52.522688 13.4031414,52.522688 C16.5445026,52.522688 19.4764398,53.15096 21.9371728,54.041012 L22.9842932,63.517452 Z M50.9424084,91.632635 L40.7329843,91.632635 L40.7329843,91.527923 C42.408377,88.334206 42.8272251,86.397033 42.8272251,82.156195 L42.8272251,54.19808 L37.1204188,54.407504 C34.8167539,54.564572 30.9424084,60.428447 28.2722513,64.250436 L27.8534031,64.093368 L29.8429319,53.308028 L61.8324607,53.308028 L63.8219895,64.093368 L63.4031414,64.250436 C60.5759162,60.428447 56.9109948,54.564572 54.5549738,54.407504 L48.8481675,54.19808 L48.8481675,82.156195 C48.8481675,86.501745 49.2146597,88.28185 50.9424084,91.527923 L50.9424084,91.632635 Z M67.1204188,91.527923 C68.7958115,88.334206 69.2146597,86.397033 69.2146597,82.156195 L69.2146597,62.784468 C69.2146597,58.54363 68.7958115,56.606457 67.1204188,53.41274 L67.1204188,53.308028 L80.4712042,53.308028 C89.947644,53.308028 93.7172775,56.972949 93.7172775,62.470332 C93.7172775,66.868237 91.3612565,70.480803 86.1256545,72.156195 L92.3560209,84.355148 C94.5549738,88.753054 95.7068063,89.904887 98.4293194,91.266143 L98.4293194,91.632635 L89.2146597,91.632635 L79.7905759,73.15096 L75.2356021,73.15096 L75.2356021,82.156195 C75.2356021,86.501745 75.6020942,88.28185 77.3298429,91.527923 L77.3298429,91.632635 L67.1204188,91.632635 L67.1204188,91.527923 Z M79.3193717,54.355148 L77.7486911,54.355148 C77.0680628,54.355148 76.2303665,54.355148 75.2356021,54.407504 L75.2356021,72.103839 L79.3193717,72.103839 C85.8638743,72.103839 87.591623,67.601222 87.591623,62.417976 C87.591623,57.653578 85.7591623,54.355148 79.3193717,54.355148 Z M127.748691,91.632635 L100.942408,91.632635 L100.942408,91.527923 C102.303665,88.386562 102.984293,86.239965 102.984293,82.784468 L102.984293,62.156195 C102.984293,58.648342 102.303665,56.606457 100.942408,53.41274 L100.942408,53.308028 L125.13089,53.308028 L127.172775,62.6274 L126.753927,62.784468 C123.979058,59.852531 120.209424,54.616928 117.905759,54.45986 L109.057592,54.093368 L109.057592,71.789703 L113.560209,71.789703 C116.125654,71.789703 118.219895,68.28185 120.052356,66.292321 L120.52356,66.292321 L120.52356,78.124782 L120.052356,78.124782 C118.376963,76.292321 116.073298,72.836824 113.560209,72.836824 L109.057592,72.836824 L109.057592,90.847295 L118.376963,90.480803 C122.670157,90.323735 126.701571,85.140489 129.633508,81.109075 L130.052356,81.266143 L127.748691,91.632635 Z M160.209424,91.632635 L133.403141,91.632635 L133.403141,91.527923 C134.764398,88.386562 135.445026,86.239965 135.445026,82.784468 L135.445026,62.156195 C135.445026,58.648342 134.764398,56.606457 133.403141,53.41274 L133.403141,53.308028 L157.591623,53.308028 L159.633508,62.6274 L159.21466,62.784468 C156.439791,59.852531 152.670157,54.616928 150.366492,54.45986 L141.518325,54.093368 L141.518325,71.789703 L146.020942,71.789703 C148.586387,71.789703 150.680628,68.28185 152.513089,66.292321 L152.984293,66.292321 L152.984293,78.124782 L152.513089,78.124782 C150.837696,76.292321 148.534031,72.836824 146.020942,72.836824 L141.518325,72.836824 L141.518325,90.847295 L150.837696,90.480803 C155.13089,90.323735 159.162304,85.140489 162.094241,81.109075 L162.513089,81.266143 L160.209424,91.632635 Z M187.120419,91.632635 L176.910995,91.632635 L176.910995,91.527923 C178.586387,88.334206 179.005236,86.397033 179.005236,82.156195 L179.005236,54.19808 L173.298429,54.407504 C170.994764,54.564572 167.120419,60.428447 164.450262,64.250436 L164.031414,64.093368 L166.020942,53.308028 L198.010471,53.308028 L200,64.093368 L199.581152,64.250436 C196.753927,60.428447 193.089005,54.564572 190.732984,54.407504 L185.026178,54.19808 L185.026178,82.156195 C185.026178,86.501745 185.39267,88.28185 187.120419,91.527923 L187.120419,91.632635 Z" id="path-1" fill="#000000"></path>
    </g>
</svg>