<svg aria-hidden="true" style="position: absolute; width: 0; height: 0; overflow: hidden;" version="1.1" xmlns="http://www.w3.org/2000/svg" xmlns:xlink="http://www.w3.org/1999/xlink">
<defs>
<symbol id="icon-youtube" viewBox="0 0 28 28">
<title>youtube</title>
<path d="M11.109 17.625l7.562-3.906-7.562-3.953v7.859zM14 4.156c5.891 0 9.797 0.281 9.797 0.281 0.547 0.063 1.75 0.063 2.812 1.188 0 0 0.859 0.844 1.109 2.781 0.297 2.266 0.281 4.531 0.281 4.531v2.125s0.016 2.266-0.281 4.531c-0.25 1.922-1.109 2.781-1.109 2.781-1.062 1.109-2.266 1.109-2.812 1.172 0 0-3.906 0.297-9.797 0.297v0c-7.281-0.063-9.516-0.281-9.516-0.281-0.625-0.109-2.031-0.078-3.094-1.188 0 0-0.859-0.859-1.109-2.781-0.297-2.266-0.281-4.531-0.281-4.531v-2.125s-0.016-2.266 0.281-4.531c0.25-1.937 1.109-2.781 1.109-2.781 1.062-1.125 2.266-1.125 2.812-1.188 0 0 3.906-0.281 9.797-0.281v0z"></path>
</symbol>
<symbol id="icon-twitter" viewBox="0 0 26 28">
<title>twitter</title>
<path d="M25.312 6.375c-0.688 1-1.547 1.891-2.531 2.609 0.016 0.219 0.016 0.438 0.016 0.656 0 6.672-5.078 14.359-14.359 14.359-2.859 0-5.516-0.828-7.75-2.266 0.406 0.047 0.797 0.063 1.219 0.063 2.359 0 4.531-0.797 6.266-2.156-2.219-0.047-4.078-1.5-4.719-3.5 0.313 0.047 0.625 0.078 0.953 0.078 0.453 0 0.906-0.063 1.328-0.172-2.312-0.469-4.047-2.5-4.047-4.953v-0.063c0.672 0.375 1.453 0.609 2.281 0.641-1.359-0.906-2.25-2.453-2.25-4.203 0-0.938 0.25-1.797 0.688-2.547 2.484 3.062 6.219 5.063 10.406 5.281-0.078-0.375-0.125-0.766-0.125-1.156 0-2.781 2.25-5.047 5.047-5.047 1.453 0 2.766 0.609 3.687 1.594 1.141-0.219 2.234-0.641 3.203-1.219-0.375 1.172-1.172 2.156-2.219 2.781 1.016-0.109 2-0.391 2.906-0.781z"></path>
</symbol>
<symbol id="icon-facebook" viewBox="0 0 16 28">
<title>facebook</title>
<path d="M14.984 0.187v4.125h-2.453c-1.922 0-2.281 0.922-2.281 2.25v2.953h4.578l-0.609 4.625h-3.969v11.859h-4.781v-11.859h-3.984v-4.625h3.984v-3.406c0-3.953 2.422-6.109 5.953-6.109 1.687 0 3.141 0.125 3.563 0.187z"></path>
</symbol>
<symbol id="icon-play_arrow" viewBox="0 0 24 24">
<title>play_arrow</title>
<path d="M8.016 5.016l10.969 6.984-10.969 6.984v-13.969z"></path>
</symbol>
<symbol id="icon-alipay" viewBox="0 0 32 32">
<title>alipay</title>
<path fill="#00a0e9" style="fill: var(--color1, #00a0e9)" d="M26.649 0h-21.583c-2.801 0-5.066 2.265-5.066 5.066v21.542c0 2.842 2.265 5.107 5.066 5.107h21.542c2.842 0 5.108-2.265 5.108-5.066v-0.329c0 0-8.197-3.419-12.357-5.437-2.801 3.377-6.384 5.478-10.091 5.478-6.302 0-8.444-5.519-5.478-9.144 0.659-0.782 1.771-1.565 3.46-1.977 2.677-0.659 6.961 0.412 10.956 1.73 0.7-1.318 1.318-2.801 1.771-4.366h-12.357v-1.236h6.384v-2.265h-7.661v-1.236h7.702v-3.213c0 0 0-0.536 0.536-0.536h3.13v3.748h7.62v1.236h-7.62v2.265h6.22c-0.577 2.43-1.483 4.696-2.636 6.673 1.895 0.7 3.583 1.318 4.86 1.771 4.531 1.524 5.561 1.607 5.561 1.607v-16.352c0-2.801-2.265-5.066-5.066-5.066z"></path>
<path fill="#00a0e9" style="fill: var(--color1, #00a0e9)" d="M4.86 18.041c-2.471 2.060-0.989 5.849 3.995 5.849 2.883 0 5.767-1.772 8.032-4.613-3.213-1.524-5.972-2.595-8.897-2.306-0.824 0.041-2.306 0.37-3.13 1.071z"></path>
</symbol>
<symbol id="icon-wechat" viewBox="0 0 36 32">
<title>wechat</title>
<path fill="#1aad19" style="fill: var(--color2, #1aad19)" d="M13.219 20.242c-0.164 0.083-0.349 0.131-0.545 0.131-0.454 0-0.849-0.25-1.056-0.619l-0.079-0.173-3.308-7.244c-0.036-0.079-0.058-0.168-0.058-0.255 0-0.334 0.271-0.605 0.606-0.605 0.136 0 0.262 0.045 0.363 0.12l3.904 2.774c0.285 0.187 0.626 0.295 0.992 0.295 0.219 0 0.427-0.041 0.622-0.111l18.361-8.154c-3.291-3.871-8.711-6.4-14.846-6.4-10.037 0-18.173 6.766-18.173 15.112 0 4.554 2.448 8.653 6.28 11.423 0.308 0.219 0.508 0.579 0.508 0.984 0 0.134-0.029 0.257-0.064 0.385-0.306 1.139-0.796 2.963-0.819 3.049-0.038 0.143-0.097 0.292-0.097 0.442 0 0.334 0.271 0.605 0.606 0.605 0.131 0 0.239-0.049 0.35-0.112l3.979-2.292c0.299-0.172 0.616-0.279 0.965-0.279 0.186 0 0.365 0.029 0.534 0.080 1.856 0.533 3.858 0.829 5.932 0.829 10.037 0 18.174-6.767 18.174-15.113 0-2.528-0.75-4.909-2.070-7.003l-21.058 12.132z"></path>
</symbol>
<symbol id="icon-applepay" viewBox="0 0 32 32">
<title>applepay</title>
<path d="M5.851 11.045c-0.376 0.449-0.976 0.803-1.576 0.752-0.075-0.607 0.219-1.251 0.563-1.649 0.376-0.461 1.032-0.788 1.563-0.815 0.063 0.632-0.181 1.251-0.549 1.712zM6.393 11.917c-0.868-0.051-1.613 0.5-2.024 0.5-0.42 0-1.051-0.475-1.739-0.461-0.893 0.013-1.724 0.524-2.18 1.34-0.939 1.629-0.244 4.044 0.661 5.371 0.444 0.657 0.976 1.377 1.676 1.352 0.661-0.025 0.924-0.436 1.724-0.436 0.807 0 1.037 0.436 1.739 0.424 0.724-0.013 1.18-0.657 1.624-1.315 0.507-0.747 0.713-1.472 0.725-1.511-0.013-0.013-1.4-0.549-1.413-2.167-0.012-1.353 1.093-1.997 1.144-2.035-0.624-0.936-1.6-1.037-1.937-1.063zM11.413 10.085v9.852h1.513v-3.368h2.093c1.912 0 3.256-1.328 3.256-3.248 0-1.921-1.319-3.236-3.205-3.236h-3.659zM12.927 11.375h1.744c1.312 0 2.061 0.707 2.061 1.952s-0.749 1.96-2.068 1.96h-1.739v-3.913zM21.039 20.012c0.951 0 1.832-0.485 2.232-1.257h0.031v1.183h1.4v-4.904c0-1.421-1.125-2.339-2.856-2.339-1.607 0-2.793 0.929-2.837 2.205h1.363c0.112-0.607 0.668-1.004 1.431-1.004 0.925 0 1.444 0.436 1.444 1.239v0.543l-1.888 0.115c-1.756 0.107-2.707 0.833-2.707 2.097 0 1.276 0.981 2.123 2.388 2.123zM21.445 18.844c-0.807 0-1.32-0.392-1.32-0.992 0-0.62 0.495-0.98 1.439-1.037l1.68-0.107v0.556c0 0.923-0.773 1.58-1.8 1.58zM26.571 22.617c1.475 0 2.168-0.569 2.773-2.295l2.656-7.533h-1.537l-1.781 5.82h-0.031l-1.781-5.82h-1.581l2.561 7.173-0.137 0.436c-0.231 0.739-0.605 1.023-1.275 1.023-0.119 0-0.349-0.013-0.444-0.025v1.183c0.088 0.025 0.463 0.037 0.576 0.037z"></path>
</symbol>
<symbol id="icon-visa" viewBox="0 0 32 32">
<title>visa</title>
<path fill="#142787" style="fill: var(--color3, #142787)" d="M23.26 11.497c-0.516-0.195-1.32-0.401-2.32-0.401-2.56 0-4.367 1.291-4.38 3.14-0.016 1.36 1.285 2.125 2.268 2.581 1.009 0.467 1.347 0.76 1.344 1.18-0.007 0.636-0.807 0.924-1.549 0.924-1.021 0-1.581-0.143-2.441-0.5l-0.319-0.148-0.361 2.131c0.621 0.26 1.741 0.483 2.9 0.5 2.721 0 4.5-1.281 4.521-3.252 0.021-1.084-0.68-1.907-2.161-2.584-0.899-0.44-1.459-0.735-1.459-1.181 0-0.395 0.479-0.816 1.479-0.816 0.86-0.013 1.461 0.172 1.94 0.364l0.24 0.108 0.361-2.059-0.063 0.013zM29.904 11.271h-2c-0.623 0-1.088 0.169-1.361 0.788l-3.847 8.712h2.721l0.544-1.427 3.32 0.003c0.081 0.333 0.32 1.424 0.32 1.424h2.399l-2.096-9.5zM12.88 11.191h2.591l-1.62 9.505h-2.592l1.621-9.508v0.003zM6.295 16.429l0.269 1.32 2.535-6.479h2.745l-4.081 9.487h-2.739l-2.24-8.035c-0.047-0.137-0.104-0.231-0.24-0.316-0.757-0.396-1.604-0.719-2.544-0.943l0.033-0.2h4.175c0.565 0.021 1.021 0.2 1.177 0.805l0.909 4.364v-0.004zM26.705 17.399l1.033-2.659c-0.013 0.027 0.213-0.549 0.344-0.907l0.177 0.82 0.599 2.743h-2.153v0.003z"></path>
</symbol>
<symbol id="icon-americanexpress" viewBox="0 0 32 32">
<title>americanexpress</title>
<path fill="#2e77bc" style="fill: var(--color4, #2e77bc)" d="M21.353 19.171c0-0.427-0.18-0.661-0.459-0.829-0.28-0.16-0.619-0.18-1.080-0.18h-2.057v3.76h0.9v-1.369h0.96c0.32 0 0.52 0.032 0.637 0.167 0.16 0.173 0.139 0.507 0.139 0.733v0.467h0.88v-0.74c-0.003-0.333-0.023-0.501-0.144-0.688-0.080-0.107-0.24-0.24-0.44-0.312l0.027-0.011c0.24-0.096 0.64-0.396 0.64-0.996zM20.193 19.713l-0.037-0.003c-0.12 0.071-0.26 0.077-0.44 0.077h-1.080v-0.84h1.099c0.16 0 0.32 0 0.44 0.067 0.131 0.064 0.208 0.196 0.2 0.34 0 0.16-0.060 0.287-0.179 0.36zM27.063 21.116h-1.729v0.8h1.739c0.901 0 1.4-0.371 1.4-1.179 0-0.373-0.088-0.597-0.249-0.776-0.204-0.177-0.523-0.257-0.973-0.276l-0.501-0.020c-0.139 0-0.24 0-0.34-0.040-0.12-0.040-0.2-0.14-0.2-0.28 0-0.12 0.023-0.221 0.12-0.28 0.111-0.061 0.236-0.088 0.363-0.080h1.64v-0.803h-1.8c-0.939 0-1.277 0.583-1.277 1.12 0 1.2 1.035 1.14 1.876 1.16 0.139 0 0.24 0.020 0.3 0.080 0.061 0.040 0.109 0.141 0.109 0.24 0 0.103-0.047 0.2-0.107 0.24-0.080 0.071-0.2 0.093-0.369 0.093z"></path>
<path fill="#2e77bc" style="fill: var(--color4, #2e77bc)" d="M0 0v13.461l1.080-2.501h2.333l0.3 0.619v-0.619h2.724l0.6 1.36 0.583-1.351h8.669c0.393 0 0.747 0.076 1.008 0.315v-0.307h2.383v0.307c0.409-0.227 0.915-0.307 1.493-0.307h3.475l0.32 0.621v-0.621h2.557l0.339 0.62v-0.621h2.477v5.264h-2.515l-0.48-0.8v0.78h-3.137l-0.341-0.84h-0.777l-0.36 0.819h-1.617c-0.64 0-1.12-0.139-1.44-0.32v0.32h-3.853v-1.179c0-0.16-0.040-0.16-0.14-0.18h-0.14v1.381h-7.451v-0.64l-0.28 0.64h-1.556l-0.269-0.64v0.62h-3.004l-0.341-0.832h-0.772l-0.341 0.832h-1.525v15.799h31.715v-9.477c-0.36 0.18-0.817 0.24-1.297 0.24h-2.297v-0.34c-0.28 0.22-0.76 0.34-1.219 0.34h-7.288v-1.2c0-0.16-0.024-0.16-0.16-0.16h-0.1v1.363h-2.4v-1.421c-0.397 0.181-0.857 0.2-1.237 0.181h-0.285v1.22h-2.907l-0.72-0.823-0.76 0.8h-4.721v-5.24h4.813l0.691 0.803 0.739-0.8h3.216c0.373 0 0.987 0.040 1.256 0.3v-0.32h2.903c0.269 0 0.859 0.060 1.204 0.3v-0.32h4.353v0.32c0.217-0.219 0.677-0.32 1.071-0.32h2.52v0.32c0.259-0.2 0.619-0.32 1.12-0.32h1.568v-17.445h-31.776z"></path>
<path fill="#2e77bc" style="fill: var(--color4, #2e77bc)" d="M28.208 19.94c0.005 0.007 0.008 0.016 0.013 0.021 0.013 0.013 0.032 0.013 0.043 0.027l-0.056-0.047zM31.771 17.443h0.087v0.74h-0.087z"></path>
<path fill="#2e77bc" style="fill: var(--color4, #2e77bc)" d="M31.82 20.040v-0.007c-0.040-0.033-0.061-0.064-0.1-0.093-0.2-0.204-0.52-0.287-1.019-0.3l-0.48-0.016c-0.16 0-0.259-0.009-0.36-0.040-0.12-0.040-0.2-0.14-0.2-0.28 0-0.12 0.040-0.213 0.12-0.272 0.101-0.060 0.2-0.067 0.36-0.067h1.631v-0.784h-1.711c-0.92 0-1.28 0.583-1.28 1.12 0 1.2 1.040 1.14 1.88 1.16 0.139 0 0.24 0.020 0.299 0.080 0.061 0.040 0.101 0.141 0.101 0.24 0 0.093-0.045 0.184-0.12 0.24-0.060 0.075-0.181 0.093-0.36 0.093h-1.717v0.807h1.716c0.56 0 0.979-0.157 1.2-0.48h0.040c0.12-0.179 0.18-0.4 0.18-0.697 0-0.32-0.060-0.52-0.18-0.701zM24.796 18.944v-0.777h-2.98v3.777h2.98v-0.78h-2.093v-0.76h2.044v-0.779h-2.043v-0.68zM18.013 11.716h0.913v3.751h-0.912zM17.501 12.724l-0.009 0.008c0-0.419-0.173-0.667-0.453-0.832-0.289-0.167-0.627-0.18-1.080-0.18h-2.052v3.76h0.899v-1.379h0.96c0.32 0 0.52 0.040 0.649 0.16 0.163 0.181 0.143 0.504 0.143 0.731v0.472h0.903v-0.737c0-0.333-0.021-0.5-0.147-0.688-0.12-0.143-0.269-0.253-0.44-0.316 0.229-0.093 0.629-0.4 0.629-1zM16.361 13.252h-0.020c-0.12 0.072-0.26 0.075-0.44 0.075h-1.101v-0.831h1.1c0.16 0 0.32 0.005 0.44 0.067 0.12 0.053 0.2 0.171 0.2 0.333s-0.063 0.293-0.179 0.355zM21.227 12.497h0.843v-0.8h-0.859c-0.619 0-1.072 0.14-1.36 0.44-0.381 0.4-0.483 0.92-0.483 1.48 0 0.683 0.164 1.111 0.48 1.432 0.309 0.317 0.86 0.413 1.293 0.413h1.040l0.34-0.836h1.853l0.349 0.836h1.813v-2.813l1.696 2.813h1.267l0.003 0.003v-3.751h-0.912v2.617l-1.573-2.613h-1.36v3.481l-1.511-3.541h-1.339l-1.257 2.96h-0.4c-0.236 0-0.483-0.040-0.624-0.179-0.167-0.2-0.248-0.48-0.248-0.883 0-0.38 0.107-0.68 0.259-0.84 0.177-0.18 0.363-0.22 0.688-0.22zM23.451 12.353l0.619 1.491v0.003h-1.24l0.621-1.493zM3.173 14.627l0.339 0.837h1.821v-2.94l1.296 2.94h0.779l1.297-2.936 0.020 2.936h0.92v-3.747h-1.488l-1.076 2.539-1.168-2.54h-1.456v3.551l-1.517-3.551h-1.329l-1.597 3.747h0.96l0.347-0.835h1.853zM2.256 12.353l0.613 1.491-0.004 0.003h-1.22l0.609-1.493zM15.808 18.16h-2.856l-1.133 1.231-1.1-1.229h-3.591v3.76h3.539l1.14-1.243 1.099 1.24h1.736v-1.253h1.117c0.8 0 1.56-0.219 1.56-1.26l-0.008-0.004c0-1.040-0.797-1.24-1.504-1.24zM10.227 21.137l-0.019-0.003h-2.181v-0.743h1.96v-0.765h-1.96v-0.68h2.24l0.977 1.093-1.019 1.099zM13.749 21.577l-1.373-1.529 1.373-1.477v3.004zM15.82 19.9h-1.18v-0.956h1.18c0.32 0 0.56 0.131 0.56 0.459 0 0.324-0.2 0.496-0.56 0.496zM13.289 12.497v-0.781h-2.983v3.751h2.983v-0.773h-2.089v-0.752h2.036v-0.768h-2.036v-0.676z"></path>
</symbol>
<symbol id="icon-mastercard" viewBox="0 0 32 32">
<title>mastercard</title>
<path fill="#eb001b" style="fill: var(--color5, #eb001b)" d="M15.124 24.041c0.077 0.065 0.16 0.131 0.241 0.195-1.569 1.044-3.453 1.651-5.476 1.651-5.463 0.001-9.889-4.425-9.889-9.887 0-5.46 4.427-9.888 9.888-9.888 2.024 0 3.908 0.608 5.473 1.651-0.080 0.068-0.16 0.131-0.22 0.2-2.341 2.023-3.681 4.955-3.681 8.037 0 3.081 1.335 6.013 3.664 8.041zM22.112 6.112c-2.027 0-3.908 0.608-5.473 1.651 0.080 0.068 0.16 0.131 0.22 0.2 2.341 2.023 3.681 4.955 3.681 8.037 0 3.080-1.335 6.009-3.664 8.041-0.077 0.065-0.16 0.131-0.241 0.195 1.569 1.044 3.451 1.651 5.476 1.651 5.463 0.001 9.889-4.425 9.889-9.887 0-5.459-4.427-9.888-9.888-9.888zM16 8.232c-0.128 0.1-0.252 0.2-0.373 0.308-2.085 1.812-3.401 4.48-3.401 7.46 0 2.981 1.316 5.648 3.401 7.46 0.12 0.107 0.247 0.211 0.373 0.309 0.128-0.099 0.252-0.203 0.373-0.309 2.084-1.812 3.401-4.479 3.401-7.46 0-2.98-1.316-5.648-3.401-7.46-0.12-0.107-0.245-0.208-0.373-0.308z"></path>
</symbol>
<symbol id="icon-search" viewBox="0 0 32 32">
<title>search</title>
<path d="M16 32c-4.275 0-8.291-1.664-11.315-4.685s-4.685-7.040-4.685-11.313c0-4.275 1.664-8.291 4.685-11.315s7.040-4.687 11.315-4.687c4.275 0 8.291 1.664 11.315 4.687s4.685 7.040 4.685 11.315c0 4.275-1.664 8.291-4.685 11.313s-7.040 4.685-11.315 4.685zM13.894 18.526c-2.553 0-4.632-2.078-4.632-4.632s2.078-4.632 4.632-4.632c2.553 0 4.632 2.078 4.632 4.632s-2.078 4.632-4.632 4.632zM18.955 8.834c-1.351-1.351-3.151-2.097-5.061-2.097s-3.71 0.746-5.059 2.097c-1.352 1.352-2.099 3.151-2.099 5.061s0.746 3.712 2.099 5.061c1.351 1.351 3.151 2.097 5.059 2.097 1.374 0 2.695-0.386 3.832-1.108l4.502 4.909c0.241 0.264 0.579 0.409 0.93 0.409 0.315 0 0.618-0.115 0.854-0.332 0.515-0.472 0.549-1.27 0.077-1.785l-4.502-4.911c0.952-1.241 1.465-2.754 1.465-4.34 0-1.91-0.744-3.712-2.097-5.061z"></path>
</symbol>
<symbol id="icon-logo" viewBox="0 0 69 32">
<title>logo</title>
<path d="M9.125 13.515v-0.036c0.576-1.099 0.721-1.765 0.721-3.225v-6.666c0-1.459-0.144-2.126-0.721-3.225v-0.036c2.648 0 3.261-0.072 4.72-0.072 3.891 0 4.576 1.711 4.576 3.081 0 1.423-0.721 2.612-2.45 3.189 2.324 0.396 3.135 1.801 3.135 3.315 0 2.054-1.495 3.675-5.242 3.675h-4.738zM14.007 6.471c1.819 0 2.432-1.621 2.432-3.027 0-1.819-1.027-2.828-2.9-2.828-0.703 0-1.207 0.054-1.621 0.18v5.675h2.090zM13.61 13.154c2.216 0 3.315-1.297 3.315-3.225 0-1.802-0.883-3.099-2.756-3.099h-2.252v6.107c0.432 0.126 0.991 0.216 1.693 0.216zM26.779 13.785c-3.387 0-6.774-3.027-6.774-6.846s3.387-6.882 6.774-6.882c3.387 0 6.81 3.063 6.81 6.882s-3.423 6.846-6.81 6.846zM26.779 13.424c3.117 0 4.522-2.738 4.522-6.485 0-3.711-1.405-6.521-4.522-6.521-3.099 0-4.486 2.81-4.486 6.521 0 3.693 1.387 6.485 4.486 6.485zM36.093 2.219l8.359 11.349 0.649-0.054v-9.602c0-1.621 0.234-2.288 1.099-3.549v-0.036h-2.594v0.036c0.865 1.243 1.099 1.946 1.099 3.549l0.054 6.666-7.548-10.251h-2.882v0.036c1.009 0.811 1.315 1.315 1.405 2.504v7.062c0 1.603-0.198 2.306-1.099 3.549v0.036h2.774v-0.036c-1.009-1.261-1.243-1.928-1.243-3.549l-0.072-7.71zM47.514 13.479c0.576-0.955 0.721-1.495 0.721-2.738v-7.638c0-1.243-0.144-1.783-0.721-2.738v-0.036c2.252 0 2.558-0.072 4.936-0.072 4.486 0 7.206 2.342 7.206 6.612 0 4.306-2.576 6.648-7.206 6.648h-4.936v-0.036zM50.307 0.616v12.592l2-0.054c3.693-0.090 5.062-2.126 5.062-6.035 0-4.468-1.639-6.503-5.080-6.503h-1.982zM7.909 21.855l-0.36-3.261c-0.847-0.306-1.856-0.522-2.936-0.522-2.162 0-4.161 0.955-4.161 3.441 0 2.342 1.892 3.243 3.765 4.161 1.495 0.721 2.792 1.585 2.792 3.297 0 1.315-0.793 2.468-2.432 2.468s-3.045-1.135-4.432-3.729l-0.144 0.054 0.36 3.333c1.207 0.45 2.486 0.703 3.711 0.703 2.54 0 4.72-1.135 4.72-3.837 0-2.504-1.838-3.441-3.621-4.306-1.603-0.775-3.117-1.495-3.117-3.207 0-1.225 0.739-2.018 1.964-2.018 1.279 0 2.468 0.811 3.729 3.477l0.162-0.054zM17.529 31.529v-0.036c-0.595-1.117-0.721-1.729-0.721-3.225v-9.62l1.964 0.072c0.811 0.054 2.072 2.072 3.045 3.387l0.144-0.054-0.685-3.711h-11.007l-0.685 3.711 0.144 0.054c0.919-1.315 2.252-3.333 3.045-3.387l1.964-0.072v9.62c0 1.459-0.144 2.126-0.721 3.225v0.036h3.513zM23.095 31.493c0.576-1.099 0.721-1.765 0.721-3.225v-6.666c0-1.459-0.144-2.126-0.721-3.225v-0.036h4.594c3.261 0 4.558 1.261 4.558 3.153 0 1.513-0.811 2.756-2.612 3.333l2.144 4.198c0.757 1.513 1.153 1.91 2.090 2.378v0.126h-3.171l-3.243-6.359h-1.567v3.099c0 1.495 0.126 2.108 0.721 3.225v0.036h-3.513v-0.036zM27.293 18.703h-0.54c-0.234 0-0.522 0-0.865 0.018v6.089h1.405c2.252 0 2.846-1.549 2.846-3.333 0-1.639-0.631-2.774-2.846-2.774zM43.957 31.529l0.793-3.567-0.144-0.054c-1.009 1.387-2.396 3.171-3.873 3.225l-3.207 0.126v-6.197h1.549c0.865 0 1.657 1.189 2.234 1.82h0.162v-4.071h-0.162c-0.631 0.685-1.351 1.892-2.234 1.892h-1.549v-6.089l3.045 0.126c0.793 0.054 2.090 1.856 3.045 2.864l0.144-0.054-0.703-3.207h-8.323v0.036c0.468 1.099 0.703 1.802 0.703 3.009v7.098c0 1.189-0.234 1.928-0.703 3.009v0.036h9.224zM55.126 31.529l0.793-3.567-0.144-0.054c-1.009 1.387-2.396 3.171-3.873 3.225l-3.207 0.126v-6.197h1.549c0.865 0 1.657 1.189 2.234 1.82h0.162v-4.071h-0.162c-0.631 0.685-1.351 1.892-2.234 1.892h-1.549v-6.089l3.045 0.126c0.793 0.054 2.090 1.856 3.045 2.864l0.144-0.054-0.703-3.207h-8.323v0.036c0.468 1.099 0.703 1.802 0.703 3.009v7.098c0 1.189-0.234 1.928-0.703 3.009v0.036h9.224zM64.386 31.529v-0.036c-0.594-1.117-0.721-1.729-0.721-3.225v-9.62l1.964 0.072c0.811 0.054 2.072 2.072 3.045 3.387l0.144-0.054-0.685-3.711h-11.007l-0.685 3.711 0.144 0.054c0.919-1.315 2.252-3.333 3.045-3.387l1.964-0.072v9.62c0 1.459-0.144 2.126-0.721 3.225v0.036h3.513z"></path>
</symbol>
<symbol id="icon-instagram" viewBox="0 0 32 32">
<title>instagram</title>
<path d="M9.333 1.333c-1.081 0-2.116 0.215-3.060 0.607-0.98 0.405-1.86 1-2.597 1.736s-1.331 1.617-1.736 2.597c-0.392 0.944-0.607 1.979-0.607 3.060v13.333c0 1.081 0.215 2.116 0.607 3.060 0.405 0.98 1 1.86 1.737 2.597s1.617 1.331 2.597 1.737c0.943 0.391 1.977 0.605 3.059 0.605h13.333c1.081 0 2.116-0.215 3.060-0.607 0.98-0.405 1.86-1 2.597-1.737s1.331-1.617 1.737-2.597c0.391-0.943 0.605-1.977 0.605-3.059v-13.333c0-1.081-0.215-2.116-0.607-3.060-0.405-0.98-1-1.86-1.737-2.597s-1.617-1.331-2.597-1.737c-0.943-0.391-1.977-0.605-3.059-0.605zM9.333 4h13.333c0.725 0 1.413 0.144 2.039 0.404 0.652 0.269 1.239 0.667 1.732 1.159s0.889 1.080 1.159 1.732c0.26 0.625 0.404 1.313 0.404 2.039v13.333c0 0.725-0.144 1.413-0.404 2.039-0.269 0.652-0.667 1.239-1.159 1.732s-1.080 0.889-1.732 1.159c-0.625 0.26-1.313 0.404-2.039 0.404h-13.333c-0.725 0-1.413-0.144-2.039-0.404-0.652-0.269-1.239-0.667-1.732-1.159s-0.889-1.080-1.159-1.732c-0.26-0.625-0.404-1.313-0.404-2.039v-13.333c0-0.725 0.144-1.413 0.404-2.039 0.269-0.652 0.667-1.239 1.159-1.732s1.080-0.889 1.732-1.159c0.625-0.26 1.313-0.404 2.039-0.404zM22.652 14.964c-0.2-1.296-0.761-2.476-1.592-3.423-0.511-0.583-1.123-1.077-1.816-1.456-0.671-0.367-1.415-0.62-2.196-0.736-0.619-0.099-1.293-0.103-1.969-0.003-0.891 0.132-1.717 0.436-2.448 0.873-0.759 0.455-1.412 1.052-1.928 1.749s-0.899 1.497-1.113 2.355c-0.207 0.827-0.257 1.705-0.125 2.596s0.436 1.717 0.873 2.448c0.455 0.759 1.052 1.412 1.749 1.928s1.496 0.899 2.353 1.115c0.827 0.207 1.705 0.257 2.596 0.125s1.717-0.436 2.448-0.873c0.759-0.455 1.412-1.052 1.928-1.749s0.899-1.496 1.115-2.353c0.207-0.827 0.257-1.705 0.125-2.596zM20.015 15.356c0.080 0.539 0.049 1.064-0.075 1.557-0.128 0.513-0.357 0.992-0.669 1.412s-0.704 0.779-1.157 1.051c-0.436 0.261-0.931 0.444-1.468 0.524s-1.064 0.049-1.557-0.075c-0.513-0.128-0.992-0.357-1.412-0.669s-0.779-0.704-1.051-1.157c-0.261-0.436-0.444-0.931-0.524-1.468s-0.049-1.064 0.075-1.557c0.128-0.513 0.357-0.992 0.669-1.412s0.704-0.779 1.157-1.051c0.436-0.261 0.931-0.444 1.468-0.524 0.417-0.061 0.82-0.056 1.16-0.003 0.493 0.073 0.939 0.227 1.337 0.444 0.413 0.225 0.78 0.521 1.087 0.872 0.5 0.571 0.84 1.284 0.96 2.057zM24.667 8.667c0-0.736-0.597-1.333-1.333-1.333s-1.333 0.597-1.333 1.333 0.597 1.333 1.333 1.333 1.333-0.597 1.333-1.333z"></path>
</symbol>
<symbol id="icon-mail" viewBox="0 0 32 32">
<title>mail</title>
<path d="M4 10.561l11.236 7.865c0.453 0.313 1.060 0.328 1.529 0l11.235-7.865v13.439c0 0.179-0.036 0.348-0.1 0.503-0.068 0.163-0.168 0.312-0.293 0.437s-0.275 0.225-0.437 0.293c-0.155 0.064-0.324 0.1-0.503 0.1h-21.333c-0.179 0-0.348-0.036-0.503-0.1-0.163-0.068-0.312-0.168-0.437-0.293s-0.225-0.275-0.293-0.437c-0.064-0.155-0.1-0.324-0.1-0.503zM1.333 8.016v15.984c0 0.537 0.108 1.053 0.303 1.524 0.204 0.492 0.503 0.933 0.871 1.303s0.811 0.668 1.303 0.871c0.471 0.195 0.987 0.303 1.524 0.303h21.333c0.537 0 1.053-0.108 1.524-0.303 0.492-0.204 0.933-0.503 1.303-0.871s0.668-0.811 0.871-1.303c0.195-0.471 0.303-0.987 0.303-1.524v-16c0-0.008 0-0.016 0-0.023-0.003-0.529-0.111-1.036-0.303-1.5-0.204-0.492-0.503-0.933-0.871-1.303s-0.811-0.668-1.303-0.871c-0.471-0.196-0.987-0.304-1.524-0.304h-21.333c-0.537 0-1.053 0.108-1.524 0.303-0.492 0.204-0.933 0.503-1.303 0.871s-0.667 0.811-0.871 1.303c-0.192 0.464-0.3 0.972-0.303 1.501 0 0.007 0 0.015 0 0.023zM27.859 7.405l-11.859 8.3-11.859-8.3c0.064-0.127 0.149-0.244 0.251-0.345 0.127-0.127 0.275-0.227 0.439-0.293 0.155-0.064 0.324-0.1 0.503-0.1h21.333c0.179 0 0.348 0.036 0.503 0.1 0.163 0.068 0.312 0.168 0.437 0.293 0.101 0.101 0.187 0.219 0.251 0.345z"></path>
</symbol>
<symbol id="icon-menu" viewBox="0 0 32 32">
<title>menu</title>
<path d="M4 17.333h24c0.736 0 1.333-0.597 1.333-1.333s-0.597-1.333-1.333-1.333h-24c-0.736 0-1.333 0.597-1.333 1.333s0.597 1.333 1.333 1.333zM4 9.333h24c0.736 0 1.333-0.597 1.333-1.333s-0.597-1.333-1.333-1.333h-24c-0.736 0-1.333 0.597-1.333 1.333s0.597 1.333 1.333 1.333zM4 25.333h24c0.736 0 1.333-0.597 1.333-1.333s-0.597-1.333-1.333-1.333h-24c-0.736 0-1.333 0.597-1.333 1.333s0.597 1.333 1.333 1.333z"></path>
</symbol>
<symbol id="icon-play1" viewBox="0 0 32 32">
<title>play1</title>
<path d="M7.388 2.879c-0.204-0.133-0.453-0.212-0.721-0.212-0.736 0-1.333 0.597-1.333 1.333v24c-0.001 0.243 0.067 0.496 0.212 0.721 0.399 0.62 1.223 0.799 1.843 0.4l18.667-12c0.152-0.096 0.292-0.232 0.4-0.4 0.399-0.62 0.219-1.444-0.4-1.843zM8 6.443l14.868 9.557-14.868 9.557z"></path>
</symbol>
<symbol id="icon-plus" viewBox="0 0 32 32">
<title>plus</title>
<path d="M6.667 17.333h8v8c0 0.736 0.597 1.333 1.333 1.333s1.333-0.597 1.333-1.333v-8h8c0.736 0 1.333-0.597 1.333-1.333s-0.597-1.333-1.333-1.333h-8v-8c0-0.736-0.597-1.333-1.333-1.333s-1.333 0.597-1.333 1.333v8h-8c-0.736 0-1.333 0.597-1.333 1.333s0.597 1.333 1.333 1.333z"></path>
</symbol>
<symbol id="icon-bed" viewBox="0 0 20 20">
<title>bed</title>
<path d="M17.5 18h-1c-0.276 0-0.5-0.224-0.5-0.5s0.224-0.5 0.5-0.5h1c0.276 0 0.5 0.224 0.5 0.5s-0.224 0.5-0.5 0.5z"></path>
<path d="M2.5 18h-1c-0.276 0-0.5-0.224-0.5-0.5s0.224-0.5 0.5-0.5h1c0.276 0 0.5 0.224 0.5 0.5s-0.224 0.5-0.5 0.5z"></path>
<path d="M18.658 11.393l-2.368-7.103c-0.199-0.596-0.768-1.086-1.388-1.24-0.022-0.095-0.046-0.186-0.074-0.27-0.227-0.68-0.616-0.781-0.828-0.781h-4c-0.127 0-0.318 0.037-0.5 0.213-0.182-0.176-0.373-0.213-0.5-0.213h-4c-0.212 0-0.601 0.102-0.828 0.781-0.028 0.084-0.053 0.174-0.074 0.27-0.621 0.154-1.19 0.643-1.388 1.24l-2.368 7.103c-0.192 0.575-0.342 1.501-0.342 2.107v2c0 0.827 0.673 1.5 1.5 1.5h16c0.827 0 1.5-0.673 1.5-1.5v-2c0-0.606-0.15-1.532-0.342-2.107zM10.157 3h3.686c0.070 0.157 0.157 0.514 0.157 1s-0.087 0.843-0.157 1h-3.686c-0.070-0.157-0.157-0.514-0.157-1s0.087-0.843 0.157-1zM5.157 3h3.686c0.070 0.157 0.157 0.514 0.157 1s-0.087 0.843-0.157 1h-3.686c-0.070-0.157-0.157-0.514-0.157-1s0.087-0.843 0.157-1zM3.658 4.607c0.054-0.162 0.185-0.317 0.345-0.429 0.014 0.388 0.072 0.752 0.169 1.041 0.227 0.68 0.616 0.781 0.828 0.781h4c0.127 0 0.318-0.037 0.5-0.213 0.182 0.176 0.373 0.213 0.5 0.213h4c0.212 0 0.601-0.102 0.828-0.781 0.096-0.289 0.155-0.654 0.169-1.041 0.16 0.113 0.291 0.267 0.345 0.429l0.798 2.393h-13.279l0.798-2.393zM2.527 8h13.946l1.236 3.709c0.032 0.095 0.062 0.204 0.091 0.321-0.097-0.020-0.197-0.030-0.3-0.030h-16c-0.103 0-0.203 0.010-0.3 0.030 0.029-0.117 0.059-0.226 0.091-0.321l1.237-3.709zM18 15.5c0 0.276-0.224 0.5-0.5 0.5h-16c-0.276 0-0.5-0.224-0.5-0.5v-2c0-0.276 0.224-0.5 0.5-0.5h16c0.276 0 0.5 0.224 0.5 0.5v2z"></path>
</symbol>
<symbol id="icon-palette" viewBox="0 0 20 20">
<title>palette</title>
<path d="M6.5 8c-0.827 0-1.5-0.673-1.5-1.5s0.673-1.5 1.5-1.5 1.5 0.673 1.5 1.5-0.673 1.5-1.5 1.5zM6.5 6c-0.276 0-0.5 0.224-0.5 0.5s0.224 0.5 0.5 0.5 0.5-0.224 0.5-0.5-0.224-0.5-0.5-0.5z"></path>
<path d="M3.5 11c-0.827 0-1.5-0.673-1.5-1.5s0.673-1.5 1.5-1.5 1.5 0.673 1.5 1.5c0 0.827-0.673 1.5-1.5 1.5zM3.5 9c-0.276 0-0.5 0.224-0.5 0.5s0.224 0.5 0.5 0.5 0.5-0.224 0.5-0.5-0.224-0.5-0.5-0.5z"></path>
<path d="M10.5 7c-0.827 0-1.5-0.673-1.5-1.5s0.673-1.5 1.5-1.5c0.827 0 1.5 0.673 1.5 1.5s-0.673 1.5-1.5 1.5zM10.5 5c-0.276 0-0.5 0.224-0.5 0.5s0.224 0.5 0.5 0.5 0.5-0.224 0.5-0.5-0.224-0.5-0.5-0.5z"></path>
<path d="M10 19c-2.655 0-5.155-0.874-7.040-2.461-0.925-0.779-1.652-1.687-2.161-2.701-0.531-1.057-0.8-2.18-0.8-3.338s0.269-2.282 0.8-3.338c0.509-1.014 1.236-1.922 2.161-2.701 1.884-1.587 4.384-2.461 7.040-2.461s5.155 0.874 7.040 2.461c0.925 0.779 1.652 1.687 2.161 2.701 0.531 1.057 0.8 2.18 0.8 3.338 0 1.852-0.825 2.512-1.597 2.512-0.645 0-1.309-0.452-1.822-1.239-0.324-0.497-0.666-0.771-0.963-0.771-0.099 0-0.197 0.030-0.299 0.091-0.562 0.336-0.23 1.245 0.018 1.756 0.802 1.654 0.868 3.098 0.192 4.178-0.82 1.31-2.681 1.974-5.53 1.974zM10 3c-4.963 0-9 3.364-9 7.5s4.037 7.5 9 7.5c1.366 0 2.474-0.159 3.293-0.473 0.649-0.249 1.117-0.596 1.39-1.032 0.611-0.976 0.204-2.284-0.245-3.21-0.96-1.98-0.063-2.793 0.368-3.051 0.258-0.154 0.531-0.233 0.813-0.233 0.458 0 1.142 0.213 1.801 1.226 0.377 0.579 0.766 0.785 0.984 0.785 0.357 0 0.597-0.608 0.597-1.512 0-4.136-4.037-7.5-9-7.5z"></path>
<path d="M11 16c-1.103 0-2-0.897-2-2s0.897-2 2-2c1.103 0 2 0.897 2 2s-0.897 2-2 2zM11 13c-0.551 0-1 0.449-1 1s0.449 1 1 1 1-0.449 1-1-0.449-1-1-1z"></path>
</symbol>
<symbol id="icon-bag2" viewBox="0 0 20 20">
<title>bag2</title>
<path d="M19.997 19.438l-0.998-13.974c-0.019-0.262-0.236-0.464-0.499-0.464h-2.293l-3.854-3.854c-0.195-0.195-0.512-0.195-0.707 0l-0.5 0.5c-0.195 0.195-0.195 0.512 0 0.707s0.512 0.195 0.707 0l0.146-0.146 2.793 2.793h-1.586l-4.354-4.354c-0.195-0.195-0.512-0.195-0.707 0l-4.354 4.354h-2.293c-0.262 0-0.48 0.203-0.499 0.464l-1 14c-0.010 0.138 0.038 0.275 0.133 0.376s0.227 0.159 0.366 0.159h19c0 0 0 0 0.001 0 0.276 0 0.5-0.224 0.5-0.5 0-0.021-0.001-0.041-0.004-0.062zM8.5 1.707l3.293 3.293h-6.586l3.293-3.293zM1.037 19l0.929-13h2.034c0 0 0 0 0 0h14.034l0.929 13h-17.926z"></path>
<path d="M10 14c-1.103 0-2.127-0.596-2.884-1.678-0.719-1.028-1.116-2.385-1.116-3.822 0-0.276 0.224-0.5 0.5-0.5s0.5 0.224 0.5 0.5c0 1.234 0.332 2.388 0.935 3.249 0.565 0.807 1.298 1.251 2.065 1.251s1.5-0.444 2.065-1.251c0.603-0.861 0.935-2.015 0.935-3.249 0-0.276 0.224-0.5 0.5-0.5s0.5 0.224 0.5 0.5c0 1.437-0.396 2.795-1.116 3.822-0.757 1.082-1.782 1.678-2.884 1.678z"></path>
</symbol>
<symbol id="icon-map-marker" viewBox="0 0 20 20">
<title>map-marker</title>
<path d="M10 20c-0.153 0-0.298-0.070-0.393-0.191-0.057-0.073-1.418-1.814-2.797-4.385-0.812-1.513-1.46-2.999-1.925-4.416-0.587-1.787-0.884-3.472-0.884-5.008 0-3.308 2.692-6 6-6s6 2.692 6 6c0 1.536-0.298 3.22-0.884 5.008-0.465 1.417-1.113 2.903-1.925 4.416-1.38 2.571-2.74 4.312-2.797 4.385-0.095 0.121-0.24 0.191-0.393 0.191zM10 1c-2.757 0-5 2.243-5 5 0 3.254 1.463 6.664 2.691 8.951 0.902 1.681 1.809 3.014 2.309 3.71 0.502-0.699 1.415-2.040 2.318-3.726 1.223-2.283 2.682-5.687 2.682-8.935 0-2.757-2.243-5-5-5z"></path>
<path d="M10 9c-1.654 0-3-1.346-3-3s1.346-3 3-3 3 1.346 3 3-1.346 3-3 3zM10 4c-1.103 0-2 0.897-2 2s0.897 2 2 2c1.103 0 2-0.897 2-2s-0.897-2-2-2z"></path>
</symbol>
<symbol id="icon-dinner" viewBox="0 0 20 20">
<title>dinner</title>
<path d="M8 0.5c0-0.276-0.224-0.5-0.5-0.5s-0.5 0.224-0.5 0.5c0 1.306 0.252 2.397 0.455 3.274 0.198 0.854 0.353 1.529 0.13 1.811-0.186 0.234-0.717 0.37-1.581 0.406-0.002-0.162-0.004-0.326-0.004-0.49v-4c0-0.276-0.224-0.5-0.5-0.5s-0.5 0.224-0.5 0.5v4c0 0.165-0.001 0.328-0.004 0.49-0.861-0.037-1.391-0.174-1.577-0.408-0.225-0.283-0.069-0.959 0.128-1.814 0.202-0.875 0.453-1.965 0.453-3.267 0-0.276-0.224-0.5-0.5-0.5s-0.5 0.224-0.5 0.5c0 1.189-0.237 2.217-0.427 3.043-0.258 1.118-0.461 2.002 0.064 2.662 0.39 0.49 1.101 0.733 2.333 0.785-0.112 2.79-0.516 5.19-0.851 7.177-0.446 2.644-0.74 4.39 0.012 5.279 0.311 0.368 0.772 0.555 1.37 0.555s1.059-0.187 1.37-0.555c0.752-0.89 0.458-2.638 0.012-5.284-0.334-1.985-0.738-4.384-0.851-7.172 1.235-0.050 1.946-0.292 2.337-0.783 0.524-0.659 0.32-1.541 0.062-2.659-0.191-0.827-0.429-1.857-0.429-3.048zM6.106 18.799c-0.073 0.086-0.215 0.201-0.606 0.201s-0.533-0.114-0.606-0.2c-0.452-0.535-0.145-2.357 0.211-4.467 0.129-0.762 0.267-1.585 0.396-2.467 0.129 0.881 0.267 1.701 0.395 2.463 0.356 2.112 0.663 3.936 0.211 4.472z"></path>
<path d="M15.882 14.162c-0.393-2.331-0.881-5.231-0.882-8.662v-5c0-0.227-0.153-0.425-0.372-0.483s-0.45 0.038-0.562 0.235c-2.019 3.534-3.016 8.931-3.058 9.159-0.027 0.146 0.013 0.296 0.108 0.41s0.236 0.18 0.384 0.18h2.235c-0.175 1.544-0.409 2.935-0.617 4.166-0.446 2.644-0.74 4.39 0.012 5.279 0.311 0.368 0.772 0.555 1.37 0.555s1.059-0.187 1.37-0.555c0.752-0.89 0.458-2.638 0.012-5.284zM12.111 9c0.248-1.171 0.882-3.887 1.889-6.317v2.817c0 1.236-0.063 2.403-0.163 3.5h-1.727zM15.106 18.799c-0.073 0.086-0.215 0.201-0.606 0.201s-0.533-0.114-0.606-0.2c-0.452-0.535-0.145-2.357 0.211-4.467 0.129-0.762 0.267-1.585 0.396-2.467 0.129 0.881 0.267 1.702 0.395 2.463 0.356 2.112 0.663 3.936 0.211 4.472z"></path>
</symbol>
<symbol id="icon-magnifier" viewBox="0 0 20 20">
<title>magnifier</title>
<path d="M18.869 19.162l-5.943-6.484c1.339-1.401 2.075-3.233 2.075-5.178 0-2.003-0.78-3.887-2.197-5.303s-3.3-2.197-5.303-2.197-3.887 0.78-5.303 2.197-2.197 3.3-2.197 5.303 0.78 3.887 2.197 5.303 3.3 2.197 5.303 2.197c1.726 0 3.362-0.579 4.688-1.645l5.943 6.483c0.099 0.108 0.233 0.162 0.369 0.162 0.121 0 0.242-0.043 0.338-0.131 0.204-0.187 0.217-0.503 0.031-0.706zM1 7.5c0-3.584 2.916-6.5 6.5-6.5s6.5 2.916 6.5 6.5-2.916 6.5-6.5 6.5-6.5-2.916-6.5-6.5z"></path>
</symbol>
<symbol id="icon-arrow-left" viewBox="0 0 20 20">
<title>arrow-left</title>
<path d="M0.646 10.146l6-6c0.195-0.195 0.512-0.195 0.707 0s0.195 0.512 0 0.707l-5.146 5.146h16.293c0.276 0 0.5 0.224 0.5 0.5s-0.224 0.5-0.5 0.5h-16.293l5.146 5.146c0.195 0.195 0.195 0.512 0 0.707-0.098 0.098-0.226 0.146-0.354 0.146s-0.256-0.049-0.354-0.146l-6-6c-0.195-0.195-0.195-0.512 0-0.707z"></path>
</symbol>
<symbol id="icon-arrow-right" viewBox="0 0 20 20">
<title>arrow-right</title>
<path d="M19.354 10.146l-6-6c-0.195-0.195-0.512-0.195-0.707 0s-0.195 0.512 0 0.707l5.146 5.146h-16.293c-0.276 0-0.5 0.224-0.5 0.5s0.224 0.5 0.5 0.5h16.293l-5.146 5.146c-0.195 0.195-0.195 0.512 0 0.707 0.098 0.098 0.226 0.146 0.354 0.146s0.256-0.049 0.354-0.146l6-6c0.195-0.195 0.195-0.512 0-0.707z"></path>
</symbol>
<symbol id="icon-percent-circle" viewBox="0 0 20 20">
<title>percent-circle</title>
<path d="M5 15c-0.138 0-0.275-0.057-0.374-0.168-0.183-0.206-0.165-0.522 0.042-0.706l9-8c0.206-0.183 0.522-0.165 0.706 0.042s0.165 0.522-0.042 0.706l-9 8c-0.095 0.085-0.214 0.126-0.332 0.126z"></path>
<path d="M9.5 20c-2.538 0-4.923-0.988-6.718-2.782s-2.782-4.18-2.782-6.717c0-2.538 0.988-4.923 2.782-6.718s4.18-2.783 6.718-2.783c2.538 0 4.923 0.988 6.718 2.783s2.782 4.18 2.782 6.718-0.988 4.923-2.782 6.717c-1.794 1.794-4.18 2.782-6.718 2.782zM9.5 2c-4.687 0-8.5 3.813-8.5 8.5s3.813 8.5 8.5 8.5 8.5-3.813 8.5-8.5-3.813-8.5-8.5-8.5z"></path>
<path d="M6.5 10c-1.378 0-2.5-1.122-2.5-2.5s1.122-2.5 2.5-2.5 2.5 1.122 2.5 2.5-1.122 2.5-2.5 2.5zM6.5 6c-0.827 0-1.5 0.673-1.5 1.5s0.673 1.5 1.5 1.5 1.5-0.673 1.5-1.5-0.673-1.5-1.5-1.5z"></path>
<path d="M12.5 16c-1.378 0-2.5-1.122-2.5-2.5s1.122-2.5 2.5-2.5 2.5 1.122 2.5 2.5-1.122 2.5-2.5 2.5zM12.5 12c-0.827 0-1.5 0.673-1.5 1.5s0.673 1.5 1.5 1.5 1.5-0.673 1.5-1.5-0.673-1.5-1.5-1.5z"></path>
</symbol>
</defs>
</svg>
