<svg aria-hidden="true" style="position: absolute; width: 0; height: 0; overflow: hidden;" version="1.1" xmlns="http://www.w3.org/2000/svg" xmlns:xlink="http://www.w3.org/1999/xlink">
<defs>
<symbol id="icon-search" viewBox="0 0 32 32">
<title>search</title>
<path d="M16 32c-4.275 0-8.291-1.664-11.315-4.685s-4.685-7.040-4.685-11.313c0-4.275 1.664-8.291 4.685-11.315s7.040-4.687 11.315-4.687c4.275 0 8.291 1.664 11.315 4.687s4.685 7.040 4.685 11.315c0 4.275-1.664 8.291-4.685 11.313s-7.040 4.685-11.315 4.685zM13.894 18.526c-2.553 0-4.632-2.078-4.632-4.632s2.078-4.632 4.632-4.632c2.553 0 4.632 2.078 4.632 4.632s-2.078 4.632-4.632 4.632zM18.955 8.834c-1.351-1.351-3.151-2.097-5.061-2.097s-3.71 0.746-5.059 2.097c-1.352 1.352-2.099 3.151-2.099 5.061s0.746 3.712 2.099 5.061c1.351 1.351 3.151 2.097 5.059 2.097 1.374 0 2.695-0.386 3.832-1.108l4.502 4.909c0.241 0.264 0.579 0.409 0.93 0.409 0.315 0 0.618-0.115 0.854-0.332 0.515-0.472 0.549-1.27 0.077-1.785l-4.502-4.911c0.952-1.241 1.465-2.754 1.465-4.34 0-1.91-0.744-3.712-2.097-5.061z"></path>
</symbol>
<symbol id="icon-logo" viewBox="0 0 69 32">
<title>logo</title>
<path d="M9.125 13.515v-0.036c0.576-1.099 0.721-1.765 0.721-3.225v-6.666c0-1.459-0.144-2.126-0.721-3.225v-0.036c2.648 0 3.261-0.072 4.72-0.072 3.891 0 4.576 1.711 4.576 3.081 0 1.423-0.721 2.612-2.45 3.189 2.324 0.396 3.135 1.801 3.135 3.315 0 2.054-1.495 3.675-5.242 3.675h-4.738zM14.007 6.471c1.819 0 2.432-1.621 2.432-3.027 0-1.819-1.027-2.828-2.9-2.828-0.703 0-1.207 0.054-1.621 0.18v5.675h2.090zM13.61 13.154c2.216 0 3.315-1.297 3.315-3.225 0-1.802-0.883-3.099-2.756-3.099h-2.252v6.107c0.432 0.126 0.991 0.216 1.693 0.216zM26.779 13.785c-3.387 0-6.774-3.027-6.774-6.846s3.387-6.882 6.774-6.882c3.387 0 6.81 3.063 6.81 6.882s-3.423 6.846-6.81 6.846zM26.779 13.424c3.117 0 4.522-2.738 4.522-6.485 0-3.711-1.405-6.521-4.522-6.521-3.099 0-4.486 2.81-4.486 6.521 0 3.693 1.387 6.485 4.486 6.485zM36.093 2.219l8.359 11.349 0.649-0.054v-9.602c0-1.621 0.234-2.288 1.099-3.549v-0.036h-2.594v0.036c0.865 1.243 1.099 1.946 1.099 3.549l0.054 6.666-7.548-10.251h-2.882v0.036c1.009 0.811 1.315 1.315 1.405 2.504v7.062c0 1.603-0.198 2.306-1.099 3.549v0.036h2.774v-0.036c-1.009-1.261-1.243-1.928-1.243-3.549l-0.072-7.71zM47.514 13.479c0.576-0.955 0.721-1.495 0.721-2.738v-7.638c0-1.243-0.144-1.783-0.721-2.738v-0.036c2.252 0 2.558-0.072 4.936-0.072 4.486 0 7.206 2.342 7.206 6.612 0 4.306-2.576 6.648-7.206 6.648h-4.936v-0.036zM50.307 0.616v12.592l2-0.054c3.693-0.090 5.062-2.126 5.062-6.035 0-4.468-1.639-6.503-5.080-6.503h-1.982zM7.909 21.855l-0.36-3.261c-0.847-0.306-1.856-0.522-2.936-0.522-2.162 0-4.161 0.955-4.161 3.441 0 2.342 1.892 3.243 3.765 4.161 1.495 0.721 2.792 1.585 2.792 3.297 0 1.315-0.793 2.468-2.432 2.468s-3.045-1.135-4.432-3.729l-0.144 0.054 0.36 3.333c1.207 0.45 2.486 0.703 3.711 0.703 2.54 0 4.72-1.135 4.72-3.837 0-2.504-1.838-3.441-3.621-4.306-1.603-0.775-3.117-1.495-3.117-3.207 0-1.225 0.739-2.018 1.964-2.018 1.279 0 2.468 0.811 3.729 3.477l0.162-0.054zM17.529 31.529v-0.036c-0.595-1.117-0.721-1.729-0.721-3.225v-9.62l1.964 0.072c0.811 0.054 2.072 2.072 3.045 3.387l0.144-0.054-0.685-3.711h-11.007l-0.685 3.711 0.144 0.054c0.919-1.315 2.252-3.333 3.045-3.387l1.964-0.072v9.62c0 1.459-0.144 2.126-0.721 3.225v0.036h3.513zM23.095 31.493c0.576-1.099 0.721-1.765 0.721-3.225v-6.666c0-1.459-0.144-2.126-0.721-3.225v-0.036h4.594c3.261 0 4.558 1.261 4.558 3.153 0 1.513-0.811 2.756-2.612 3.333l2.144 4.198c0.757 1.513 1.153 1.91 2.090 2.378v0.126h-3.171l-3.243-6.359h-1.567v3.099c0 1.495 0.126 2.108 0.721 3.225v0.036h-3.513v-0.036zM27.293 18.703h-0.54c-0.234 0-0.522 0-0.865 0.018v6.089h1.405c2.252 0 2.846-1.549 2.846-3.333 0-1.639-0.631-2.774-2.846-2.774zM43.957 31.529l0.793-3.567-0.144-0.054c-1.009 1.387-2.396 3.171-3.873 3.225l-3.207 0.126v-6.197h1.549c0.865 0 1.657 1.189 2.234 1.82h0.162v-4.071h-0.162c-0.631 0.685-1.351 1.892-2.234 1.892h-1.549v-6.089l3.045 0.126c0.793 0.054 2.090 1.856 3.045 2.864l0.144-0.054-0.703-3.207h-8.323v0.036c0.468 1.099 0.703 1.802 0.703 3.009v7.098c0 1.189-0.234 1.928-0.703 3.009v0.036h9.224zM55.126 31.529l0.793-3.567-0.144-0.054c-1.009 1.387-2.396 3.171-3.873 3.225l-3.207 0.126v-6.197h1.549c0.865 0 1.657 1.189 2.234 1.82h0.162v-4.071h-0.162c-0.631 0.685-1.351 1.892-2.234 1.892h-1.549v-6.089l3.045 0.126c0.793 0.054 2.090 1.856 3.045 2.864l0.144-0.054-0.703-3.207h-8.323v0.036c0.468 1.099 0.703 1.802 0.703 3.009v7.098c0 1.189-0.234 1.928-0.703 3.009v0.036h9.224zM64.386 31.529v-0.036c-0.594-1.117-0.721-1.729-0.721-3.225v-9.62l1.964 0.072c0.811 0.054 2.072 2.072 3.045 3.387l0.144-0.054-0.685-3.711h-11.007l-0.685 3.711 0.144 0.054c0.919-1.315 2.252-3.333 3.045-3.387l1.964-0.072v9.62c0 1.459-0.144 2.126-0.721 3.225v0.036h3.513z"></path>
</symbol>
<symbol id="icon-facebook" viewBox="0 0 32 32">
<title>facebook</title>
<path d="M22.667 4v2.667h-2.667c-0.359 0-0.704 0.072-1.020 0.203-0.328 0.136-0.62 0.333-0.865 0.579s-0.443 0.539-0.579 0.865c-0.131 0.316-0.203 0.661-0.203 1.020v4c0 0.736 0.597 1.333 1.333 1.333h3.625l-0.667 2.667h-2.959c-0.736 0-1.333 0.597-1.333 1.333v9.333h-2.667v-9.333c0-0.736-0.597-1.333-1.333-1.333h-2.667v-2.667h2.667c0.736 0 1.333-0.597 1.333-1.333v-4c0-0.725 0.144-1.413 0.404-2.039 0.269-0.652 0.667-1.239 1.159-1.732s1.080-0.889 1.732-1.159c0.625-0.26 1.313-0.404 2.039-0.404zM24 1.333h-4c-1.081 0-2.116 0.215-3.060 0.607-0.98 0.405-1.86 1-2.597 1.737s-1.331 1.616-1.736 2.596c-0.392 0.944-0.607 1.979-0.607 3.060v2.667h-2.667c-0.736 0-1.333 0.597-1.333 1.333v5.333c0 0.736 0.597 1.333 1.333 1.333h2.667v9.333c0 0.736 0.597 1.333 1.333 1.333h5.333c0.736 0 1.333-0.597 1.333-1.333v-9.333h2.667c0.621 0 1.144-0.425 1.293-1.009l1.333-5.333c0.179-0.715-0.256-1.439-0.971-1.617-0.111-0.028-0.223-0.041-0.323-0.040h-4v-2.667h4c0.736 0 1.333-0.597 1.333-1.333v-5.333c0-0.736-0.597-1.333-1.333-1.333z"></path>
</symbol>
<symbol id="icon-instagram" viewBox="0 0 32 32">
<title>instagram</title>
<path d="M9.333 1.333c-1.081 0-2.116 0.215-3.060 0.607-0.98 0.405-1.86 1-2.597 1.736s-1.331 1.617-1.736 2.597c-0.392 0.944-0.607 1.979-0.607 3.060v13.333c0 1.081 0.215 2.116 0.607 3.060 0.405 0.98 1 1.86 1.737 2.597s1.617 1.331 2.597 1.737c0.943 0.391 1.977 0.605 3.059 0.605h13.333c1.081 0 2.116-0.215 3.060-0.607 0.98-0.405 1.86-1 2.597-1.737s1.331-1.617 1.737-2.597c0.391-0.943 0.605-1.977 0.605-3.059v-13.333c0-1.081-0.215-2.116-0.607-3.060-0.405-0.98-1-1.86-1.737-2.597s-1.617-1.331-2.597-1.737c-0.943-0.391-1.977-0.605-3.059-0.605zM9.333 4h13.333c0.725 0 1.413 0.144 2.039 0.404 0.652 0.269 1.239 0.667 1.732 1.159s0.889 1.080 1.159 1.732c0.26 0.625 0.404 1.313 0.404 2.039v13.333c0 0.725-0.144 1.413-0.404 2.039-0.269 0.652-0.667 1.239-1.159 1.732s-1.080 0.889-1.732 1.159c-0.625 0.26-1.313 0.404-2.039 0.404h-13.333c-0.725 0-1.413-0.144-2.039-0.404-0.652-0.269-1.239-0.667-1.732-1.159s-0.889-1.080-1.159-1.732c-0.26-0.625-0.404-1.313-0.404-2.039v-13.333c0-0.725 0.144-1.413 0.404-2.039 0.269-0.652 0.667-1.239 1.159-1.732s1.080-0.889 1.732-1.159c0.625-0.26 1.313-0.404 2.039-0.404zM22.652 14.964c-0.2-1.296-0.761-2.476-1.592-3.423-0.511-0.583-1.123-1.077-1.816-1.456-0.671-0.367-1.415-0.62-2.196-0.736-0.619-0.099-1.293-0.103-1.969-0.003-0.891 0.132-1.717 0.436-2.448 0.873-0.759 0.455-1.412 1.052-1.928 1.749s-0.899 1.497-1.113 2.355c-0.207 0.827-0.257 1.705-0.125 2.596s0.436 1.717 0.873 2.448c0.455 0.759 1.052 1.412 1.749 1.928s1.496 0.899 2.353 1.115c0.827 0.207 1.705 0.257 2.596 0.125s1.717-0.436 2.448-0.873c0.759-0.455 1.412-1.052 1.928-1.749s0.899-1.496 1.115-2.353c0.207-0.827 0.257-1.705 0.125-2.596zM20.015 15.356c0.080 0.539 0.049 1.064-0.075 1.557-0.128 0.513-0.357 0.992-0.669 1.412s-0.704 0.779-1.157 1.051c-0.436 0.261-0.931 0.444-1.468 0.524s-1.064 0.049-1.557-0.075c-0.513-0.128-0.992-0.357-1.412-0.669s-0.779-0.704-1.051-1.157c-0.261-0.436-0.444-0.931-0.524-1.468s-0.049-1.064 0.075-1.557c0.128-0.513 0.357-0.992 0.669-1.412s0.704-0.779 1.157-1.051c0.436-0.261 0.931-0.444 1.468-0.524 0.417-0.061 0.82-0.056 1.16-0.003 0.493 0.073 0.939 0.227 1.337 0.444 0.413 0.225 0.78 0.521 1.087 0.872 0.5 0.571 0.84 1.284 0.96 2.057zM24.667 8.667c0-0.736-0.597-1.333-1.333-1.333s-1.333 0.597-1.333 1.333 0.597 1.333 1.333 1.333 1.333-0.597 1.333-1.333z"></path>
</symbol>
<symbol id="icon-twitter" viewBox="0 0 32 32">
<title>twitter</title>
<path d="M27.777 7.016c-0.248 0.323-0.521 0.633-0.821 0.928-0.311 0.309-0.463 0.756-0.371 1.211 0.049 0.243 0.080 0.539 0.081 0.845 0 1.873-0.232 3.596-0.653 5.161-0.389 1.447-0.943 2.763-1.629 3.944-1.359 2.339-3.249 4.164-5.464 5.425-1.137 0.648-2.363 1.149-3.647 1.493-1.339 0.359-2.741 0.547-4.177 0.555-1.468 0.008-2.969-0.173-4.471-0.555 1.661-0.481 3.28-1.229 4.791-2.253 0.196-0.132 0.364-0.324 0.469-0.561 0.299-0.673-0.004-1.461-0.677-1.76-1.917-0.852-3.316-1.867-4.335-2.94-0.96-1.011-1.604-2.093-2.024-3.185-0.247-0.641-0.417-1.289-0.528-1.932-0.14-0.808-0.184-1.608-0.164-2.371 0.028-1.081 0.184-2.080 0.371-2.909 0.524 0.457 1.069 0.941 1.645 1.384 1.389 1.068 2.96 1.905 4.655 2.457 1.639 0.533 3.392 0.8 5.207 0.753 0.721-0.020 1.299-0.609 1.299-1.333v-1.348c-0.003-0.239 0.012-0.476 0.045-0.712 0.077-0.548 0.251-1.080 0.516-1.571 0.256-0.472 0.6-0.908 1.032-1.284 0.476-0.415 1.009-0.712 1.569-0.9 0.581-0.195 1.193-0.271 1.799-0.228s1.2 0.201 1.749 0.476c0.528 0.263 1.015 0.632 1.429 1.108 0.336 0.381 0.865 0.555 1.377 0.405 0.308-0.089 0.617-0.191 0.927-0.304zM29.899 2.911c-0.987 0.696-2.031 1.235-3.049 1.607-0.495-0.444-1.039-0.811-1.615-1.097-0.867-0.432-1.804-0.683-2.753-0.749s-1.912 0.052-2.831 0.36c-0.885 0.296-1.727 0.768-2.472 1.416-0.676 0.588-1.22 1.276-1.627 2.024-0.421 0.776-0.693 1.615-0.813 2.472-0.049 0.353-0.073 0.711-0.072 1.067-1.044-0.077-2.052-0.279-3.013-0.592-1.4-0.456-2.701-1.148-3.855-2.035-1.033-0.795-1.948-1.745-2.711-2.821-0.427-0.6-1.259-0.741-1.86-0.316-0.204 0.145-0.356 0.339-0.447 0.547-0.023 0.052-0.489 1.109-0.856 2.733-0.216 0.963-0.401 2.137-0.435 3.428-0.023 0.912 0.029 1.888 0.203 2.892 0.137 0.8 0.353 1.619 0.668 2.436 0.539 1.401 1.365 2.787 2.579 4.064 0.812 0.855 1.787 1.651 2.949 2.367-0.681 0.316-1.379 0.572-2.083 0.772-1.459 0.413-2.952 0.581-4.415 0.517-0.736-0.032-1.359 0.537-1.391 1.273-0.023 0.519 0.253 0.981 0.684 1.224 3.372 1.873 6.961 2.764 10.425 2.745 1.66-0.009 3.291-0.227 4.853-0.645 1.5-0.401 2.937-0.988 4.277-1.752 2.613-1.489 4.848-3.648 6.449-6.403 0.807-1.388 1.449-2.921 1.899-4.589 0.484-1.804 0.744-3.76 0.744-5.855-0.001-0.223-0.011-0.44-0.031-0.652 1.341-1.487 2.235-3.239 2.661-5.041 0.169-0.716-0.275-1.435-0.991-1.604-0.387-0.092-0.773-0.004-1.076 0.208z"></path>
</symbol>
<symbol id="icon-bed" viewBox="0 0 20 20">
<title>bed</title>
<path d="M17.5 18h-1c-0.276 0-0.5-0.224-0.5-0.5s0.224-0.5 0.5-0.5h1c0.276 0 0.5 0.224 0.5 0.5s-0.224 0.5-0.5 0.5z"></path>
<path d="M2.5 18h-1c-0.276 0-0.5-0.224-0.5-0.5s0.224-0.5 0.5-0.5h1c0.276 0 0.5 0.224 0.5 0.5s-0.224 0.5-0.5 0.5z"></path>
<path d="M18.658 11.393l-2.368-7.103c-0.199-0.596-0.768-1.086-1.388-1.24-0.022-0.095-0.046-0.186-0.074-0.27-0.227-0.68-0.616-0.781-0.828-0.781h-4c-0.127 0-0.318 0.037-0.5 0.213-0.182-0.176-0.373-0.213-0.5-0.213h-4c-0.212 0-0.601 0.102-0.828 0.781-0.028 0.084-0.053 0.174-0.074 0.27-0.621 0.154-1.19 0.643-1.388 1.24l-2.368 7.103c-0.192 0.575-0.342 1.501-0.342 2.107v2c0 0.827 0.673 1.5 1.5 1.5h16c0.827 0 1.5-0.673 1.5-1.5v-2c0-0.606-0.15-1.532-0.342-2.107zM10.157 3h3.686c0.070 0.157 0.157 0.514 0.157 1s-0.087 0.843-0.157 1h-3.686c-0.070-0.157-0.157-0.514-0.157-1s0.087-0.843 0.157-1zM5.157 3h3.686c0.070 0.157 0.157 0.514 0.157 1s-0.087 0.843-0.157 1h-3.686c-0.070-0.157-0.157-0.514-0.157-1s0.087-0.843 0.157-1zM3.658 4.607c0.054-0.162 0.185-0.317 0.345-0.429 0.014 0.388 0.072 0.752 0.169 1.041 0.227 0.68 0.616 0.781 0.828 0.781h4c0.127 0 0.318-0.037 0.5-0.213 0.182 0.176 0.373 0.213 0.5 0.213h4c0.212 0 0.601-0.102 0.828-0.781 0.096-0.289 0.155-0.654 0.169-1.041 0.16 0.113 0.291 0.267 0.345 0.429l0.798 2.393h-13.279l0.798-2.393zM2.527 8h13.946l1.236 3.709c0.032 0.095 0.062 0.204 0.091 0.321-0.097-0.020-0.197-0.030-0.3-0.030h-16c-0.103 0-0.203 0.010-0.3 0.030 0.029-0.117 0.059-0.226 0.091-0.321l1.237-3.709zM18 15.5c0 0.276-0.224 0.5-0.5 0.5h-16c-0.276 0-0.5-0.224-0.5-0.5v-2c0-0.276 0.224-0.5 0.5-0.5h16c0.276 0 0.5 0.224 0.5 0.5v2z"></path>
</symbol>
<symbol id="icon-palette" viewBox="0 0 20 20">
<title>palette</title>
<path d="M6.5 8c-0.827 0-1.5-0.673-1.5-1.5s0.673-1.5 1.5-1.5 1.5 0.673 1.5 1.5-0.673 1.5-1.5 1.5zM6.5 6c-0.276 0-0.5 0.224-0.5 0.5s0.224 0.5 0.5 0.5 0.5-0.224 0.5-0.5-0.224-0.5-0.5-0.5z"></path>
<path d="M3.5 11c-0.827 0-1.5-0.673-1.5-1.5s0.673-1.5 1.5-1.5 1.5 0.673 1.5 1.5c0 0.827-0.673 1.5-1.5 1.5zM3.5 9c-0.276 0-0.5 0.224-0.5 0.5s0.224 0.5 0.5 0.5 0.5-0.224 0.5-0.5-0.224-0.5-0.5-0.5z"></path>
<path d="M10.5 7c-0.827 0-1.5-0.673-1.5-1.5s0.673-1.5 1.5-1.5c0.827 0 1.5 0.673 1.5 1.5s-0.673 1.5-1.5 1.5zM10.5 5c-0.276 0-0.5 0.224-0.5 0.5s0.224 0.5 0.5 0.5 0.5-0.224 0.5-0.5-0.224-0.5-0.5-0.5z"></path>
<path d="M10 19c-2.655 0-5.155-0.874-7.040-2.461-0.925-0.779-1.652-1.687-2.161-2.701-0.531-1.057-0.8-2.18-0.8-3.338s0.269-2.282 0.8-3.338c0.509-1.014 1.236-1.922 2.161-2.701 1.884-1.587 4.384-2.461 7.040-2.461s5.155 0.874 7.040 2.461c0.925 0.779 1.652 1.687 2.161 2.701 0.531 1.057 0.8 2.18 0.8 3.338 0 1.852-0.825 2.512-1.597 2.512-0.645 0-1.309-0.452-1.822-1.239-0.324-0.497-0.666-0.771-0.963-0.771-0.099 0-0.197 0.030-0.299 0.091-0.562 0.336-0.23 1.245 0.018 1.756 0.802 1.654 0.868 3.098 0.192 4.178-0.82 1.31-2.681 1.974-5.53 1.974zM10 3c-4.963 0-9 3.364-9 7.5s4.037 7.5 9 7.5c1.366 0 2.474-0.159 3.293-0.473 0.649-0.249 1.117-0.596 1.39-1.032 0.611-0.976 0.204-2.284-0.245-3.21-0.96-1.98-0.063-2.793 0.368-3.051 0.258-0.154 0.531-0.233 0.813-0.233 0.458 0 1.142 0.213 1.801 1.226 0.377 0.579 0.766 0.785 0.984 0.785 0.357 0 0.597-0.608 0.597-1.512 0-4.136-4.037-7.5-9-7.5z"></path>
<path d="M11 16c-1.103 0-2-0.897-2-2s0.897-2 2-2c1.103 0 2 0.897 2 2s-0.897 2-2 2zM11 13c-0.551 0-1 0.449-1 1s0.449 1 1 1 1-0.449 1-1-0.449-1-1-1z"></path>
</symbol>
<symbol id="icon-bag2" viewBox="0 0 20 20">
<title>bag2</title>
<path d="M19.997 19.438l-0.998-13.974c-0.019-0.262-0.236-0.464-0.499-0.464h-2.293l-3.854-3.854c-0.195-0.195-0.512-0.195-0.707 0l-0.5 0.5c-0.195 0.195-0.195 0.512 0 0.707s0.512 0.195 0.707 0l0.146-0.146 2.793 2.793h-1.586l-4.354-4.354c-0.195-0.195-0.512-0.195-0.707 0l-4.354 4.354h-2.293c-0.262 0-0.48 0.203-0.499 0.464l-1 14c-0.010 0.138 0.038 0.275 0.133 0.376s0.227 0.159 0.366 0.159h19c0 0 0 0 0.001 0 0.276 0 0.5-0.224 0.5-0.5 0-0.021-0.001-0.041-0.004-0.062zM8.5 1.707l3.293 3.293h-6.586l3.293-3.293zM1.037 19l0.929-13h2.034c0 0 0 0 0 0h14.034l0.929 13h-17.926z"></path>
<path d="M10 14c-1.103 0-2.127-0.596-2.884-1.678-0.719-1.028-1.116-2.385-1.116-3.822 0-0.276 0.224-0.5 0.5-0.5s0.5 0.224 0.5 0.5c0 1.234 0.332 2.388 0.935 3.249 0.565 0.807 1.298 1.251 2.065 1.251s1.5-0.444 2.065-1.251c0.603-0.861 0.935-2.015 0.935-3.249 0-0.276 0.224-0.5 0.5-0.5s0.5 0.224 0.5 0.5c0 1.437-0.396 2.795-1.116 3.822-0.757 1.082-1.782 1.678-2.884 1.678z"></path>
</symbol>
<symbol id="icon-map-marker" viewBox="0 0 20 20">
<title>map-marker</title>
<path d="M10 20c-0.153 0-0.298-0.070-0.393-0.191-0.057-0.073-1.418-1.814-2.797-4.385-0.812-1.513-1.46-2.999-1.925-4.416-0.587-1.787-0.884-3.472-0.884-5.008 0-3.308 2.692-6 6-6s6 2.692 6 6c0 1.536-0.298 3.22-0.884 5.008-0.465 1.417-1.113 2.903-1.925 4.416-1.38 2.571-2.74 4.312-2.797 4.385-0.095 0.121-0.24 0.191-0.393 0.191zM10 1c-2.757 0-5 2.243-5 5 0 3.254 1.463 6.664 2.691 8.951 0.902 1.681 1.809 3.014 2.309 3.71 0.502-0.699 1.415-2.040 2.318-3.726 1.223-2.283 2.682-5.687 2.682-8.935 0-2.757-2.243-5-5-5z"></path>
<path d="M10 9c-1.654 0-3-1.346-3-3s1.346-3 3-3 3 1.346 3 3-1.346 3-3 3zM10 4c-1.103 0-2 0.897-2 2s0.897 2 2 2c1.103 0 2-0.897 2-2s-0.897-2-2-2z"></path>
</symbol>
<symbol id="icon-dinner" viewBox="0 0 20 20">
<title>dinner</title>
<path d="M8 0.5c0-0.276-0.224-0.5-0.5-0.5s-0.5 0.224-0.5 0.5c0 1.306 0.252 2.397 0.455 3.274 0.198 0.854 0.353 1.529 0.13 1.811-0.186 0.234-0.717 0.37-1.581 0.406-0.002-0.162-0.004-0.326-0.004-0.49v-4c0-0.276-0.224-0.5-0.5-0.5s-0.5 0.224-0.5 0.5v4c0 0.165-0.001 0.328-0.004 0.49-0.861-0.037-1.391-0.174-1.577-0.408-0.225-0.283-0.069-0.959 0.128-1.814 0.202-0.875 0.453-1.965 0.453-3.267 0-0.276-0.224-0.5-0.5-0.5s-0.5 0.224-0.5 0.5c0 1.189-0.237 2.217-0.427 3.043-0.258 1.118-0.461 2.002 0.064 2.662 0.39 0.49 1.101 0.733 2.333 0.785-0.112 2.79-0.516 5.19-0.851 7.177-0.446 2.644-0.74 4.39 0.012 5.279 0.311 0.368 0.772 0.555 1.37 0.555s1.059-0.187 1.37-0.555c0.752-0.89 0.458-2.638 0.012-5.284-0.334-1.985-0.738-4.384-0.851-7.172 1.235-0.050 1.946-0.292 2.337-0.783 0.524-0.659 0.32-1.541 0.062-2.659-0.191-0.827-0.429-1.857-0.429-3.048zM6.106 18.799c-0.073 0.086-0.215 0.201-0.606 0.201s-0.533-0.114-0.606-0.2c-0.452-0.535-0.145-2.357 0.211-4.467 0.129-0.762 0.267-1.585 0.396-2.467 0.129 0.881 0.267 1.701 0.395 2.463 0.356 2.112 0.663 3.936 0.211 4.472z"></path>
<path d="M15.882 14.162c-0.393-2.331-0.881-5.231-0.882-8.662v-5c0-0.227-0.153-0.425-0.372-0.483s-0.45 0.038-0.562 0.235c-2.019 3.534-3.016 8.931-3.058 9.159-0.027 0.146 0.013 0.296 0.108 0.41s0.236 0.18 0.384 0.18h2.235c-0.175 1.544-0.409 2.935-0.617 4.166-0.446 2.644-0.74 4.39 0.012 5.279 0.311 0.368 0.772 0.555 1.37 0.555s1.059-0.187 1.37-0.555c0.752-0.89 0.458-2.638 0.012-5.284zM12.111 9c0.248-1.171 0.882-3.887 1.889-6.317v2.817c0 1.236-0.063 2.403-0.163 3.5h-1.727zM15.106 18.799c-0.073 0.086-0.215 0.201-0.606 0.201s-0.533-0.114-0.606-0.2c-0.452-0.535-0.145-2.357 0.211-4.467 0.129-0.762 0.267-1.585 0.396-2.467 0.129 0.881 0.267 1.702 0.395 2.463 0.356 2.112 0.663 3.936 0.211 4.472z"></path>
</symbol>
<symbol id="icon-magnifier" viewBox="0 0 20 20">
<title>magnifier</title>
<path d="M18.869 19.162l-5.943-6.484c1.339-1.401 2.075-3.233 2.075-5.178 0-2.003-0.78-3.887-2.197-5.303s-3.3-2.197-5.303-2.197-3.887 0.78-5.303 2.197-2.197 3.3-2.197 5.303 0.78 3.887 2.197 5.303 3.3 2.197 5.303 2.197c1.726 0 3.362-0.579 4.688-1.645l5.943 6.483c0.099 0.108 0.233 0.162 0.369 0.162 0.121 0 0.242-0.043 0.338-0.131 0.204-0.187 0.217-0.503 0.031-0.706zM1 7.5c0-3.584 2.916-6.5 6.5-6.5s6.5 2.916 6.5 6.5-2.916 6.5-6.5 6.5-6.5-2.916-6.5-6.5z"></path>
</symbol>
<symbol id="icon-menu" viewBox="0 0 20 20">
<title>menu</title>
<path d="M17.5 6h-15c-0.276 0-0.5-0.224-0.5-0.5s0.224-0.5 0.5-0.5h15c0.276 0 0.5 0.224 0.5 0.5s-0.224 0.5-0.5 0.5z"></path>
<path d="M17.5 11h-15c-0.276 0-0.5-0.224-0.5-0.5s0.224-0.5 0.5-0.5h15c0.276 0 0.5 0.224 0.5 0.5s-0.224 0.5-0.5 0.5z"></path>
<path d="M17.5 16h-15c-0.276 0-0.5-0.224-0.5-0.5s0.224-0.5 0.5-0.5h15c0.276 0 0.5 0.224 0.5 0.5s-0.224 0.5-0.5 0.5z"></path>
</symbol>
<symbol id="icon-arrow-left" viewBox="0 0 20 20">
<title>arrow-left</title>
<path d="M0.646 10.146l6-6c0.195-0.195 0.512-0.195 0.707 0s0.195 0.512 0 0.707l-5.146 5.146h16.293c0.276 0 0.5 0.224 0.5 0.5s-0.224 0.5-0.5 0.5h-16.293l5.146 5.146c0.195 0.195 0.195 0.512 0 0.707-0.098 0.098-0.226 0.146-0.354 0.146s-0.256-0.049-0.354-0.146l-6-6c-0.195-0.195-0.195-0.512 0-0.707z"></path>
</symbol>
<symbol id="icon-arrow-right" viewBox="0 0 20 20">
<title>arrow-right</title>
<path d="M19.354 10.146l-6-6c-0.195-0.195-0.512-0.195-0.707 0s-0.195 0.512 0 0.707l5.146 5.146h-16.293c-0.276 0-0.5 0.224-0.5 0.5s0.224 0.5 0.5 0.5h16.293l-5.146 5.146c-0.195 0.195-0.195 0.512 0 0.707 0.098 0.098 0.226 0.146 0.354 0.146s0.256-0.049 0.354-0.146l6-6c0.195-0.195 0.195-0.512 0-0.707z"></path>
</symbol>
<symbol id="icon-percent-circle" viewBox="0 0 20 20">
<title>percent-circle</title>
<path d="M5 15c-0.138 0-0.275-0.057-0.374-0.168-0.183-0.206-0.165-0.522 0.042-0.706l9-8c0.206-0.183 0.522-0.165 0.706 0.042s0.165 0.522-0.042 0.706l-9 8c-0.095 0.085-0.214 0.126-0.332 0.126z"></path>
<path d="M9.5 20c-2.538 0-4.923-0.988-6.718-2.782s-2.782-4.18-2.782-6.717c0-2.538 0.988-4.923 2.782-6.718s4.18-2.783 6.718-2.783c2.538 0 4.923 0.988 6.718 2.783s2.782 4.18 2.782 6.718-0.988 4.923-2.782 6.717c-1.794 1.794-4.18 2.782-6.718 2.782zM9.5 2c-4.687 0-8.5 3.813-8.5 8.5s3.813 8.5 8.5 8.5 8.5-3.813 8.5-8.5-3.813-8.5-8.5-8.5z"></path>
<path d="M6.5 10c-1.378 0-2.5-1.122-2.5-2.5s1.122-2.5 2.5-2.5 2.5 1.122 2.5 2.5-1.122 2.5-2.5 2.5zM6.5 6c-0.827 0-1.5 0.673-1.5 1.5s0.673 1.5 1.5 1.5 1.5-0.673 1.5-1.5-0.673-1.5-1.5-1.5z"></path>
<path d="M12.5 16c-1.378 0-2.5-1.122-2.5-2.5s1.122-2.5 2.5-2.5 2.5 1.122 2.5 2.5-1.122 2.5-2.5 2.5zM12.5 12c-0.827 0-1.5 0.673-1.5 1.5s0.673 1.5 1.5 1.5 1.5-0.673 1.5-1.5-0.673-1.5-1.5-1.5z"></path>
</symbol>
</defs>
</svg>
