<svg aria-hidden="true" style="position: absolute; width: 0; height: 0; overflow: hidden;" version="1.1" xmlns="http://www.w3.org/2000/svg" xmlns:xlink="http://www.w3.org/1999/xlink">
<defs>
<symbol id="icon-facebook" viewBox="0 0 24 24">
<title>facebook</title>
<path d="M17 3v2h-2c-0.269 0-0.528 0.054-0.765 0.152-0.246 0.102-0.465 0.25-0.649 0.434s-0.332 0.404-0.434 0.649c-0.098 0.237-0.152 0.496-0.152 0.765v3c0 0.552 0.448 1 1 1h2.719l-0.5 2h-2.219c-0.552 0-1 0.448-1 1v7h-2v-7c0-0.552-0.448-1-1-1h-2v-2h2c0.552 0 1-0.448 1-1v-3c0-0.544 0.108-1.060 0.303-1.529 0.202-0.489 0.5-0.929 0.869-1.299s0.81-0.667 1.299-0.869c0.469-0.195 0.985-0.303 1.529-0.303zM18 1h-3c-0.811 0-1.587 0.161-2.295 0.455-0.735 0.304-1.395 0.75-1.948 1.303s-0.998 1.212-1.302 1.947c-0.294 0.708-0.455 1.484-0.455 2.295v2h-2c-0.552 0-1 0.448-1 1v4c0 0.552 0.448 1 1 1h2v7c0 0.552 0.448 1 1 1h4c0.552 0 1-0.448 1-1v-7h2c0.466 0 0.858-0.319 0.97-0.757l1-4c0.134-0.536-0.192-1.079-0.728-1.213-0.083-0.021-0.167-0.031-0.242-0.030h-3v-2h3c0.552 0 1-0.448 1-1v-4c0-0.552-0.448-1-1-1z"></path>
</symbol>
<symbol id="icon-instagram" viewBox="0 0 24 24">
<title>instagram</title>
<path d="M7 1c-0.811 0-1.587 0.161-2.295 0.455-0.735 0.304-1.395 0.75-1.948 1.302s-0.998 1.213-1.302 1.948c-0.294 0.708-0.455 1.484-0.455 2.295v10c0 0.811 0.161 1.587 0.455 2.295 0.304 0.735 0.75 1.395 1.303 1.948s1.213 0.998 1.948 1.303c0.707 0.293 1.483 0.454 2.294 0.454h10c0.811 0 1.587-0.161 2.295-0.455 0.735-0.304 1.395-0.75 1.948-1.303s0.998-1.213 1.303-1.948c0.293-0.707 0.454-1.483 0.454-2.294v-10c0-0.811-0.161-1.587-0.455-2.295-0.304-0.735-0.75-1.395-1.303-1.948s-1.213-0.998-1.948-1.303c-0.707-0.293-1.483-0.454-2.294-0.454zM7 3h10c0.544 0 1.060 0.108 1.529 0.303 0.489 0.202 0.929 0.5 1.299 0.869s0.667 0.81 0.869 1.299c0.195 0.469 0.303 0.985 0.303 1.529v10c0 0.544-0.108 1.060-0.303 1.529-0.202 0.489-0.5 0.929-0.869 1.299s-0.81 0.667-1.299 0.869c-0.469 0.195-0.985 0.303-1.529 0.303h-10c-0.544 0-1.060-0.108-1.529-0.303-0.489-0.202-0.929-0.5-1.299-0.869s-0.667-0.81-0.869-1.299c-0.195-0.469-0.303-0.985-0.303-1.529v-10c0-0.544 0.108-1.060 0.303-1.529 0.202-0.489 0.5-0.929 0.869-1.299s0.81-0.667 1.299-0.869c0.469-0.195 0.985-0.303 1.529-0.303zM16.989 11.223c-0.15-0.972-0.571-1.857-1.194-2.567-0.383-0.437-0.842-0.808-1.362-1.092-0.503-0.275-1.061-0.465-1.647-0.552-0.464-0.074-0.97-0.077-1.477-0.002-0.668 0.099-1.288 0.327-1.836 0.655-0.569 0.341-1.059 0.789-1.446 1.312s-0.674 1.123-0.835 1.766c-0.155 0.62-0.193 1.279-0.094 1.947s0.327 1.288 0.655 1.836c0.341 0.569 0.789 1.059 1.312 1.446s1.122 0.674 1.765 0.836c0.62 0.155 1.279 0.193 1.947 0.094s1.288-0.327 1.836-0.655c0.569-0.341 1.059-0.789 1.446-1.312s0.674-1.122 0.836-1.765c0.155-0.62 0.193-1.279 0.094-1.947zM15.011 11.517c0.060 0.404 0.037 0.798-0.056 1.168-0.096 0.385-0.268 0.744-0.502 1.059s-0.528 0.584-0.868 0.788c-0.327 0.196-0.698 0.333-1.101 0.393s-0.798 0.037-1.168-0.056c-0.385-0.096-0.744-0.268-1.059-0.502s-0.584-0.528-0.788-0.868c-0.196-0.327-0.333-0.698-0.393-1.101s-0.037-0.798 0.056-1.168c0.096-0.385 0.268-0.744 0.502-1.059s0.528-0.584 0.868-0.788c0.327-0.196 0.698-0.333 1.101-0.393 0.313-0.046 0.615-0.042 0.87-0.002 0.37 0.055 0.704 0.17 1.003 0.333 0.31 0.169 0.585 0.391 0.815 0.654 0.375 0.428 0.63 0.963 0.72 1.543zM18.5 6.5c0-0.552-0.448-1-1-1s-1 0.448-1 1 0.448 1 1 1 1-0.448 1-1z"></path>
</symbol>
<symbol id="icon-twitter" viewBox="0 0 24 24">
<title>twitter</title>
<path d="M20.833 5.262c-0.186 0.242-0.391 0.475-0.616 0.696-0.233 0.232-0.347 0.567-0.278 0.908 0.037 0.182 0.060 0.404 0.061 0.634 0 1.405-0.174 2.697-0.49 3.871-0.292 1.085-0.707 2.072-1.222 2.958-1.019 1.754-2.437 3.123-4.098 4.069-0.853 0.486-1.772 0.862-2.735 1.12-1.004 0.269-2.056 0.41-3.133 0.416-1.101 0.006-2.227-0.13-3.353-0.416 1.246-0.361 2.46-0.922 3.593-1.69 0.147-0.099 0.273-0.243 0.352-0.421 0.224-0.505-0.003-1.096-0.508-1.32-1.438-0.639-2.487-1.4-3.251-2.205-0.72-0.758-1.203-1.57-1.518-2.389-0.185-0.481-0.313-0.967-0.396-1.449-0.105-0.606-0.138-1.206-0.123-1.778 0.021-0.811 0.138-1.56 0.278-2.182 0.393 0.343 0.802 0.706 1.234 1.038 1.042 0.801 2.22 1.429 3.491 1.843 1.229 0.4 2.544 0.6 3.905 0.565 0.541-0.015 0.974-0.457 0.974-1v-1.011c-0.002-0.179 0.009-0.357 0.034-0.534 0.058-0.411 0.188-0.81 0.387-1.178 0.192-0.354 0.45-0.681 0.774-0.963 0.357-0.311 0.757-0.534 1.177-0.675 0.436-0.146 0.895-0.203 1.349-0.171s0.9 0.151 1.312 0.357c0.396 0.197 0.761 0.474 1.072 0.831 0.252 0.286 0.649 0.416 1.033 0.304 0.231-0.067 0.463-0.143 0.695-0.228zM22.424 2.183c-0.74 0.522-1.523 0.926-2.287 1.205-0.371-0.333-0.779-0.608-1.211-0.823-0.65-0.324-1.353-0.512-2.065-0.562s-1.434 0.039-2.123 0.27c-0.664 0.222-1.295 0.576-1.854 1.062-0.507 0.441-0.915 0.957-1.22 1.518-0.316 0.582-0.52 1.211-0.61 1.854-0.037 0.265-0.055 0.533-0.054 0.8-0.783-0.058-1.539-0.209-2.26-0.444-1.050-0.342-2.026-0.861-2.891-1.526-0.775-0.596-1.461-1.309-2.033-2.116-0.32-0.45-0.944-0.556-1.395-0.237-0.153 0.109-0.267 0.254-0.335 0.41-0.017 0.039-0.367 0.832-0.642 2.050-0.162 0.722-0.301 1.603-0.326 2.571-0.017 0.684 0.022 1.416 0.152 2.169 0.103 0.6 0.265 1.214 0.501 1.827 0.404 1.051 1.024 2.090 1.934 3.048 0.609 0.641 1.34 1.238 2.212 1.775-0.511 0.237-1.034 0.429-1.562 0.579-1.094 0.31-2.214 0.436-3.311 0.388-0.552-0.024-1.019 0.403-1.043 0.955-0.017 0.389 0.19 0.736 0.513 0.918 2.529 1.405 5.221 2.073 7.819 2.059 1.245-0.007 2.468-0.17 3.64-0.484 1.125-0.301 2.203-0.741 3.208-1.314 1.96-1.117 3.636-2.736 4.837-4.802 0.605-1.041 1.087-2.191 1.424-3.442 0.363-1.353 0.558-2.82 0.558-4.391-0.001-0.167-0.008-0.33-0.023-0.489 1.006-1.115 1.676-2.429 1.996-3.781 0.127-0.537-0.206-1.076-0.743-1.203-0.29-0.069-0.58-0.003-0.807 0.156z"></path>
</symbol>
<symbol id="icon-bed" viewBox="0 0 20 20">
<title>bed</title>
<path d="M17.5 18h-1c-0.276 0-0.5-0.224-0.5-0.5s0.224-0.5 0.5-0.5h1c0.276 0 0.5 0.224 0.5 0.5s-0.224 0.5-0.5 0.5z"></path>
<path d="M2.5 18h-1c-0.276 0-0.5-0.224-0.5-0.5s0.224-0.5 0.5-0.5h1c0.276 0 0.5 0.224 0.5 0.5s-0.224 0.5-0.5 0.5z"></path>
<path d="M18.658 11.393l-2.368-7.103c-0.199-0.596-0.768-1.086-1.388-1.24-0.022-0.095-0.046-0.186-0.074-0.27-0.227-0.68-0.616-0.781-0.828-0.781h-4c-0.127 0-0.318 0.037-0.5 0.213-0.182-0.176-0.373-0.213-0.5-0.213h-4c-0.212 0-0.601 0.102-0.828 0.781-0.028 0.084-0.053 0.174-0.074 0.27-0.621 0.154-1.19 0.643-1.388 1.24l-2.368 7.103c-0.192 0.575-0.342 1.501-0.342 2.107v2c0 0.827 0.673 1.5 1.5 1.5h16c0.827 0 1.5-0.673 1.5-1.5v-2c0-0.606-0.15-1.532-0.342-2.107zM10.157 3h3.686c0.070 0.157 0.157 0.514 0.157 1s-0.087 0.843-0.157 1h-3.686c-0.070-0.157-0.157-0.514-0.157-1s0.087-0.843 0.157-1zM5.157 3h3.686c0.070 0.157 0.157 0.514 0.157 1s-0.087 0.843-0.157 1h-3.686c-0.070-0.157-0.157-0.514-0.157-1s0.087-0.843 0.157-1zM3.658 4.607c0.054-0.162 0.185-0.317 0.345-0.429 0.014 0.388 0.072 0.752 0.169 1.041 0.227 0.68 0.616 0.781 0.828 0.781h4c0.127 0 0.318-0.037 0.5-0.213 0.182 0.176 0.373 0.213 0.5 0.213h4c0.212 0 0.601-0.102 0.828-0.781 0.096-0.289 0.155-0.654 0.169-1.041 0.16 0.113 0.291 0.267 0.345 0.429l0.798 2.393h-13.279l0.798-2.393zM2.527 8h13.946l1.236 3.709c0.032 0.095 0.062 0.204 0.091 0.321-0.097-0.020-0.197-0.030-0.3-0.030h-16c-0.103 0-0.203 0.010-0.3 0.030 0.029-0.117 0.059-0.226 0.091-0.321l1.237-3.709zM18 15.5c0 0.276-0.224 0.5-0.5 0.5h-16c-0.276 0-0.5-0.224-0.5-0.5v-2c0-0.276 0.224-0.5 0.5-0.5h16c0.276 0 0.5 0.224 0.5 0.5v2z"></path>
</symbol>
<symbol id="icon-palette" viewBox="0 0 20 20">
<title>palette</title>
<path d="M6.5 8c-0.827 0-1.5-0.673-1.5-1.5s0.673-1.5 1.5-1.5 1.5 0.673 1.5 1.5-0.673 1.5-1.5 1.5zM6.5 6c-0.276 0-0.5 0.224-0.5 0.5s0.224 0.5 0.5 0.5 0.5-0.224 0.5-0.5-0.224-0.5-0.5-0.5z"></path>
<path d="M3.5 11c-0.827 0-1.5-0.673-1.5-1.5s0.673-1.5 1.5-1.5 1.5 0.673 1.5 1.5c0 0.827-0.673 1.5-1.5 1.5zM3.5 9c-0.276 0-0.5 0.224-0.5 0.5s0.224 0.5 0.5 0.5 0.5-0.224 0.5-0.5-0.224-0.5-0.5-0.5z"></path>
<path d="M10.5 7c-0.827 0-1.5-0.673-1.5-1.5s0.673-1.5 1.5-1.5c0.827 0 1.5 0.673 1.5 1.5s-0.673 1.5-1.5 1.5zM10.5 5c-0.276 0-0.5 0.224-0.5 0.5s0.224 0.5 0.5 0.5 0.5-0.224 0.5-0.5-0.224-0.5-0.5-0.5z"></path>
<path d="M10 19c-2.655 0-5.155-0.874-7.040-2.461-0.925-0.779-1.652-1.687-2.161-2.701-0.531-1.057-0.8-2.18-0.8-3.338s0.269-2.282 0.8-3.338c0.509-1.014 1.236-1.922 2.161-2.701 1.884-1.587 4.384-2.461 7.040-2.461s5.155 0.874 7.040 2.461c0.925 0.779 1.652 1.687 2.161 2.701 0.531 1.057 0.8 2.18 0.8 3.338 0 1.852-0.825 2.512-1.597 2.512-0.645 0-1.309-0.452-1.822-1.239-0.324-0.497-0.666-0.771-0.963-0.771-0.099 0-0.197 0.030-0.299 0.091-0.562 0.336-0.23 1.245 0.018 1.756 0.802 1.654 0.868 3.098 0.192 4.178-0.82 1.31-2.681 1.974-5.53 1.974zM10 3c-4.963 0-9 3.364-9 7.5s4.037 7.5 9 7.5c1.366 0 2.474-0.159 3.293-0.473 0.649-0.249 1.117-0.596 1.39-1.032 0.611-0.976 0.204-2.284-0.245-3.21-0.96-1.98-0.063-2.793 0.368-3.051 0.258-0.154 0.531-0.233 0.813-0.233 0.458 0 1.142 0.213 1.801 1.226 0.377 0.579 0.766 0.785 0.984 0.785 0.357 0 0.597-0.608 0.597-1.512 0-4.136-4.037-7.5-9-7.5z"></path>
<path d="M11 16c-1.103 0-2-0.897-2-2s0.897-2 2-2c1.103 0 2 0.897 2 2s-0.897 2-2 2zM11 13c-0.551 0-1 0.449-1 1s0.449 1 1 1 1-0.449 1-1-0.449-1-1-1z"></path>
</symbol>
<symbol id="icon-bag" viewBox="0 0 20 20">
<title>bag</title>
<path d="M8.5 17c-0.218 0-0.418-0.143-0.481-0.363-0.076-0.266 0.078-0.542 0.343-0.618l7-2c0.266-0.076 0.542 0.078 0.618 0.343s-0.078 0.542-0.343 0.618l-7 2c-0.046 0.013-0.092 0.019-0.138 0.019z"></path>
<path d="M17.998 16.458l-1-12h-0c-0.014-0.171-0.116-0.327-0.274-0.406l-2-1c-0.247-0.123-0.547-0.023-0.671 0.224s-0.023 0.547 0.224 0.671l0.697 0.348-1.258 0.252c-0.029-0.207-0.062-0.418-0.097-0.629-0.445-2.673-1.119-3.918-2.118-3.918-0.399 0-0.774 0.168-1.082 0.486-0.703 0.724-1.139 2.265-1.333 4.71-0.008 0.095-0.014 0.188-0.021 0.281l-2.458 0.492-1.853-1.235 3.856-0.857c0.27-0.060 0.44-0.327 0.38-0.597s-0.327-0.439-0.597-0.38l-1.025 0.228c0.276-1.346 0.685-2.129 1.133-2.129 0.054 0 0.164 0.072 0.297 0.274 0.152 0.231 0.462 0.295 0.692 0.143s0.295-0.462 0.143-0.692c-0.394-0.6-0.833-0.725-1.133-0.725-0.459 0-1.109 0.222-1.604 1.277-0.244 0.521-0.443 1.222-0.591 2.087l-2.914 0.647c-0.196 0.043-0.346 0.199-0.383 0.396-0.003 0.018-0.005 0.036-0.007 0.053l-0-0-1 13c-0.016 0.203 0.093 0.395 0.275 0.486l4 2c0.070 0.035 0.147 0.053 0.224 0.053 0.044 0 0.088-0.006 0.132-0.018l11-3c0.233-0.063 0.387-0.284 0.367-0.524zM11.135 1.183c0.159-0.164 0.284-0.183 0.365-0.183s0.301 0.163 0.551 0.779c0.221 0.545 0.416 1.318 0.579 2.296 0.037 0.224 0.071 0.448 0.102 0.669l-2.651 0.53c0.227-2.848 0.758-3.786 1.054-4.091zM3.933 5.39l2.067 1.378v11.923l-2.976-1.488 0.909-11.814zM7 18.845v-11.935l2.009-0.402c-0.042 1.127-0.018 1.96-0.017 2.007 0.008 0.271 0.23 0.485 0.499 0.485 0.005 0 0.010-0 0.015-0 0.276-0.008 0.493-0.239 0.485-0.515-0-0.012-0.028-0.956 0.027-2.179l2.837-0.567c0.108 1.009 0.146 1.773 0.146 1.785 0.013 0.276 0.247 0.489 0.523 0.476s0.489-0.247 0.476-0.523c-0.002-0.049-0.042-0.864-0.16-1.934l2.209-0.442 0.919 11.027-9.967 2.718z"></path>
</symbol>
<symbol id="icon-dinner" viewBox="0 0 20 20">
<title>dinner</title>
<path d="M8 0.5c0-0.276-0.224-0.5-0.5-0.5s-0.5 0.224-0.5 0.5c0 1.306 0.252 2.397 0.455 3.274 0.198 0.854 0.353 1.529 0.13 1.811-0.186 0.234-0.717 0.37-1.581 0.406-0.002-0.162-0.004-0.326-0.004-0.49v-4c0-0.276-0.224-0.5-0.5-0.5s-0.5 0.224-0.5 0.5v4c0 0.165-0.001 0.328-0.004 0.49-0.861-0.037-1.391-0.174-1.577-0.408-0.225-0.283-0.069-0.959 0.128-1.814 0.202-0.875 0.453-1.965 0.453-3.267 0-0.276-0.224-0.5-0.5-0.5s-0.5 0.224-0.5 0.5c0 1.189-0.237 2.217-0.427 3.043-0.258 1.118-0.461 2.002 0.064 2.662 0.39 0.49 1.101 0.733 2.333 0.785-0.112 2.79-0.516 5.19-0.851 7.177-0.446 2.644-0.74 4.39 0.012 5.279 0.311 0.368 0.772 0.555 1.37 0.555s1.059-0.187 1.37-0.555c0.752-0.89 0.458-2.638 0.012-5.284-0.334-1.985-0.738-4.384-0.851-7.172 1.235-0.050 1.946-0.292 2.337-0.783 0.524-0.659 0.32-1.541 0.062-2.659-0.191-0.827-0.429-1.857-0.429-3.048zM6.106 18.799c-0.073 0.086-0.215 0.201-0.606 0.201s-0.533-0.114-0.606-0.2c-0.452-0.535-0.145-2.357 0.211-4.467 0.129-0.762 0.267-1.585 0.396-2.467 0.129 0.881 0.267 1.701 0.395 2.463 0.356 2.112 0.663 3.936 0.211 4.472z"></path>
<path d="M15.882 14.162c-0.393-2.331-0.881-5.231-0.882-8.662v-5c0-0.227-0.153-0.425-0.372-0.483s-0.45 0.038-0.562 0.235c-2.019 3.534-3.016 8.931-3.058 9.159-0.027 0.146 0.013 0.296 0.108 0.41s0.236 0.18 0.384 0.18h2.235c-0.175 1.544-0.409 2.935-0.617 4.166-0.446 2.644-0.74 4.39 0.012 5.279 0.311 0.368 0.772 0.555 1.37 0.555s1.059-0.187 1.37-0.555c0.752-0.89 0.458-2.638 0.012-5.284zM12.111 9c0.248-1.171 0.882-3.887 1.889-6.317v2.817c0 1.236-0.063 2.403-0.163 3.5h-1.727zM15.106 18.799c-0.073 0.086-0.215 0.201-0.606 0.201s-0.533-0.114-0.606-0.2c-0.452-0.535-0.145-2.357 0.211-4.467 0.129-0.762 0.267-1.585 0.396-2.467 0.129 0.881 0.267 1.702 0.395 2.463 0.356 2.112 0.663 3.936 0.211 4.472z"></path>
</symbol>
<symbol id="icon-magnifier" viewBox="0 0 20 20">
<title>magnifier</title>
<path d="M18.869 19.162l-5.943-6.484c1.339-1.401 2.075-3.233 2.075-5.178 0-2.003-0.78-3.887-2.197-5.303s-3.3-2.197-5.303-2.197-3.887 0.78-5.303 2.197-2.197 3.3-2.197 5.303 0.78 3.887 2.197 5.303 3.3 2.197 5.303 2.197c1.726 0 3.362-0.579 4.688-1.645l5.943 6.483c0.099 0.108 0.233 0.162 0.369 0.162 0.121 0 0.242-0.043 0.338-0.131 0.204-0.187 0.217-0.503 0.031-0.706zM1 7.5c0-3.584 2.916-6.5 6.5-6.5s6.5 2.916 6.5 6.5-2.916 6.5-6.5 6.5-6.5-2.916-6.5-6.5z"></path>
</symbol>
<symbol id="icon-menu" viewBox="0 0 20 20">
<title>menu</title>
<path d="M17.5 6h-15c-0.276 0-0.5-0.224-0.5-0.5s0.224-0.5 0.5-0.5h15c0.276 0 0.5 0.224 0.5 0.5s-0.224 0.5-0.5 0.5z"></path>
<path d="M17.5 11h-15c-0.276 0-0.5-0.224-0.5-0.5s0.224-0.5 0.5-0.5h15c0.276 0 0.5 0.224 0.5 0.5s-0.224 0.5-0.5 0.5z"></path>
<path d="M17.5 16h-15c-0.276 0-0.5-0.224-0.5-0.5s0.224-0.5 0.5-0.5h15c0.276 0 0.5 0.224 0.5 0.5s-0.224 0.5-0.5 0.5z"></path>
</symbol>
<symbol id="icon-arrow-left" viewBox="0 0 20 20">
<title>arrow-left</title>
<path d="M0.646 10.146l6-6c0.195-0.195 0.512-0.195 0.707 0s0.195 0.512 0 0.707l-5.146 5.146h16.293c0.276 0 0.5 0.224 0.5 0.5s-0.224 0.5-0.5 0.5h-16.293l5.146 5.146c0.195 0.195 0.195 0.512 0 0.707-0.098 0.098-0.226 0.146-0.354 0.146s-0.256-0.049-0.354-0.146l-6-6c-0.195-0.195-0.195-0.512 0-0.707z"></path>
</symbol>
<symbol id="icon-arrow-right" viewBox="0 0 20 20">
<title>arrow-right</title>
<path d="M19.354 10.146l-6-6c-0.195-0.195-0.512-0.195-0.707 0s-0.195 0.512 0 0.707l5.146 5.146h-16.293c-0.276 0-0.5 0.224-0.5 0.5s0.224 0.5 0.5 0.5h16.293l-5.146 5.146c-0.195 0.195-0.195 0.512 0 0.707 0.098 0.098 0.226 0.146 0.354 0.146s0.256-0.049 0.354-0.146l6-6c0.195-0.195 0.195-0.512 0-0.707z"></path>
</symbol>
</defs>
</svg>
