<svg xmlns="http://www.w3.org/2000/svg" style="position:absolute;width:0;height:0" aria-hidden="true" overflow="hidden"><defs><symbol id="icon-youtube" viewBox="0 0 28 28"><title>youtube</title><path d="M11.109 17.625l7.562-3.906-7.562-3.953v7.859zM14 4.156c5.891 0 9.797.281 9.797.281.547.063 1.75.063 2.812 1.188 0 0 .859.844 1.109 2.781.297 2.266.281 4.531.281 4.531v2.125s.016 2.266-.281 4.531c-.25 1.922-1.109 2.781-1.109 2.781-1.062 1.109-2.266 1.109-2.812 1.172 0 0-3.906.297-9.797.297-7.281-.063-9.516-.281-9.516-.281-.625-.109-2.031-.078-3.094-1.188 0 0-.859-.859-1.109-2.781C-.016 17.327 0 15.062 0 15.062v-2.125s-.016-2.266.281-4.531C.531 6.469 1.39 5.625 1.39 5.625 2.452 4.5 3.656 4.5 4.202 4.437c0 0 3.906-.281 9.797-.281z"/></symbol><symbol id="icon-twitter" viewBox="0 0 26 28"><title>twitter</title><path d="M25.312 6.375a10.85 10.85 0 0 1-2.531 2.609c.016.219.016.438.016.656 0 6.672-5.078 14.359-14.359 14.359-2.859 0-5.516-.828-7.75-2.266.406.047.797.063 1.219.063 2.359 0 4.531-.797 6.266-2.156a5.056 5.056 0 0 1-4.719-3.5c.313.047.625.078.953.078.453 0 .906-.063 1.328-.172a5.048 5.048 0 0 1-4.047-4.953v-.063a5.093 5.093 0 0 0 2.281.641 5.044 5.044 0 0 1-2.25-4.203c0-.938.25-1.797.688-2.547a14.344 14.344 0 0 0 10.406 5.281 5.708 5.708 0 0 1-.125-1.156 5.045 5.045 0 0 1 5.047-5.047 5.03 5.03 0 0 1 3.687 1.594 9.943 9.943 0 0 0 3.203-1.219 5.032 5.032 0 0 1-2.219 2.781c1.016-.109 2-.391 2.906-.781z"/></symbol><symbol id="icon-facebook" viewBox="0 0 16 28"><title>facebook</title><path d="M14.984.187v4.125h-2.453c-1.922 0-2.281.922-2.281 2.25v2.953h4.578l-.609 4.625H10.25v11.859H5.469V14.14H1.485V9.515h3.984V6.109C5.469 2.156 7.891 0 11.422 0c1.687 0 3.141.125 3.563.187z"/></symbol><symbol id="icon-play_arrow" viewBox="0 0 24 24"><title>play_arrow</title><path d="M8.016 5.016L18.985 12 8.016 18.984V5.015z"/></symbol><symbol id="icon-alipay" viewBox="0 0 32 32"><title>alipay</title><path fill="var(--color1, #00a0e9)" d="M26.649 0H5.066A5.062 5.062 0 0 0 0 5.066v21.542c0 2.842 2.265 5.107 5.066 5.107h21.542c2.842 0 5.108-2.265 5.108-5.066v-.329s-8.197-3.419-12.357-5.437c-2.801 3.377-6.384 5.478-10.091 5.478-6.302 0-8.444-5.519-5.478-9.144.659-.782 1.771-1.565 3.46-1.977 2.677-.659 6.961.412 10.956 1.73a23.049 23.049 0 0 0 1.771-4.366H7.62v-1.236h6.384V9.103H6.343V7.867h7.702V4.654s0-.536.536-.536h3.13v3.748h7.62v1.236h-7.62v2.265h6.22c-.577 2.43-1.483 4.696-2.636 6.673 1.895.7 3.583 1.318 4.86 1.771 4.531 1.524 5.561 1.607 5.561 1.607V5.066A5.062 5.062 0 0 0 26.65 0z"/><path fill="var(--color1, #00a0e9)" d="M4.86 18.041c-2.471 2.06-.989 5.849 3.995 5.849 2.883 0 5.767-1.772 8.032-4.613-3.213-1.524-5.972-2.595-8.897-2.306-.824.041-2.306.37-3.13 1.071z"/></symbol><symbol id="icon-wechat" viewBox="0 0 36 32"><title>wechat</title><path fill="var(--color2, #1aad19)" d="M13.219 20.242a1.204 1.204 0 0 1-1.601-.488l-.079-.173-3.308-7.244a.605.605 0 0 1 .911-.74l3.904 2.774a1.802 1.802 0 0 0 1.614.184l18.361-8.154C29.73 2.53 24.31.001 18.175.001 8.138.001.002 6.767.002 15.113c0 4.554 2.448 8.653 6.28 11.423.308.219.508.579.508.984 0 .134-.029.257-.064.385l-.819 3.049c-.038.143-.097.292-.097.442 0 .334.271.605.606.605a.693.693 0 0 0 .35-.112l3.979-2.292c.299-.172.616-.279.965-.279.186 0 .365.029.534.08 1.856.533 3.858.829 5.932.829 10.037 0 18.174-6.767 18.174-15.113 0-2.528-.75-4.909-2.07-7.003L13.222 20.243z"/></symbol><symbol id="icon-applepay" viewBox="0 0 32 32"><title>applepay</title><path d="M5.851 11.045c-.376.449-.976.803-1.576.752-.075-.607.219-1.251.563-1.649.376-.461 1.032-.788 1.563-.815.063.632-.181 1.251-.549 1.712zm.542.872c-.868-.051-1.613.5-2.024.5-.42 0-1.051-.475-1.739-.461-.893.013-1.724.524-2.18 1.34-.939 1.629-.244 4.044.661 5.371.444.657.976 1.377 1.676 1.352.661-.025.924-.436 1.724-.436.807 0 1.037.436 1.739.424.724-.013 1.18-.657 1.624-1.315.507-.747.713-1.472.725-1.511-.013-.013-1.4-.549-1.413-2.167-.012-1.353 1.093-1.997 1.144-2.035-.624-.936-1.6-1.037-1.937-1.063zm5.02-1.832v9.852h1.513v-3.368h2.093c1.912 0 3.256-1.328 3.256-3.248 0-1.921-1.319-3.236-3.205-3.236h-3.659zm1.514 1.29h1.744c1.312 0 2.061.707 2.061 1.952s-.749 1.96-2.068 1.96h-1.739v-3.913zm8.112 8.637c.951 0 1.832-.485 2.232-1.257h.031v1.183h1.4v-4.904c0-1.421-1.125-2.339-2.856-2.339-1.607 0-2.793.929-2.837 2.205h1.363c.112-.607.668-1.004 1.431-1.004.925 0 1.444.436 1.444 1.239v.543l-1.888.115c-1.756.107-2.707.833-2.707 2.097 0 1.276.981 2.123 2.388 2.123zm.406-1.168c-.807 0-1.32-.392-1.32-.992 0-.62.495-.98 1.439-1.037l1.68-.107v.556c0 .923-.773 1.58-1.8 1.58zm5.126 3.773c1.475 0 2.168-.569 2.773-2.295L32 12.789h-1.537l-1.781 5.82h-.031l-1.781-5.82h-1.581l2.561 7.173-.137.436c-.231.739-.605 1.023-1.275 1.023a4.94 4.94 0 0 1-.444-.025v1.183c.088.025.463.037.576.037z"/></symbol><symbol id="icon-visa" viewBox="0 0 32 32"><title>visa</title><path fill="var(--color3, #142787)" d="M23.26 11.497a6.648 6.648 0 0 0-2.32-.401c-2.56 0-4.367 1.291-4.38 3.14-.016 1.36 1.285 2.125 2.268 2.581 1.009.467 1.347.76 1.344 1.18-.007.636-.807.924-1.549.924-1.021 0-1.581-.143-2.441-.5l-.319-.148-.361 2.131c.621.26 1.741.483 2.9.5 2.721 0 4.5-1.281 4.521-3.252.021-1.084-.68-1.907-2.161-2.584-.899-.44-1.459-.735-1.459-1.181 0-.395.479-.816 1.479-.816a4.754 4.754 0 0 1 1.94.364l.24.108.361-2.059-.063.013zm6.644-.226h-2c-.623 0-1.088.169-1.361.788l-3.847 8.712h2.721l.544-1.427 3.32.003c.081.333.32 1.424.32 1.424H32l-2.096-9.5zm-17.024-.08h2.591l-1.62 9.505h-2.592l1.621-9.508v.003zm-6.585 5.238l.269 1.32 2.535-6.479h2.745l-4.081 9.487H5.024l-2.24-8.035a.532.532 0 0 0-.24-.316A10.943 10.943 0 0 0 0 11.463l.033-.2h4.175c.565.021 1.021.2 1.177.805l.909 4.364v-.004zm20.41.97l1.033-2.659c-.013.027.213-.549.344-.907l.177.82.599 2.743h-2.153v.003z"/></symbol><symbol id="icon-americanexpress" viewBox="0 0 32 32"><title>americanexpress</title><path fill="var(--color4, #2e77bc)" d="M21.353 19.171c0-.427-.18-.661-.459-.829-.28-.16-.619-.18-1.08-.18h-2.057v3.76h.9v-1.369h.96c.32 0 .52.032.637.167.16.173.139.507.139.733v.467h.88v-.74c-.003-.333-.023-.501-.144-.688a.997.997 0 0 0-.44-.312l.027-.011c.24-.096.64-.396.64-.996zm-1.16.542l-.037-.003c-.12.071-.26.077-.44.077h-1.08v-.84h1.099c.16 0 .32 0 .44.067a.353.353 0 0 1 .2.34c0 .16-.06.287-.179.36zm6.87 1.403h-1.729v.8h1.739c.901 0 1.4-.371 1.4-1.179 0-.373-.088-.597-.249-.776-.204-.177-.523-.257-.973-.276l-.501-.02c-.139 0-.24 0-.34-.04a.282.282 0 0 1-.2-.28c0-.12.023-.221.12-.28a.664.664 0 0 1 .363-.08h1.64v-.803h-1.8c-.939 0-1.277.583-1.277 1.12 0 1.2 1.035 1.14 1.876 1.16.139 0 .24.02.3.08.061.04.109.141.109.24 0 .103-.047.2-.107.24-.08.071-.2.093-.369.093z"/><path fill="var(--color4, #2e77bc)" d="M0 0v13.461l1.08-2.501h2.333l.3.619v-.619h2.724l.6 1.36.583-1.351h8.669c.393 0 .747.076 1.008.315v-.307h2.383v.307c.409-.227.915-.307 1.493-.307h3.475l.32.621v-.621h2.557l.339.62v-.621h2.477v5.264h-2.515l-.48-.8v.78h-3.137l-.341-.84h-.777l-.36.819h-1.617c-.64 0-1.12-.139-1.44-.32v.32h-3.853V15.02c0-.16-.04-.16-.14-.18h-.14v1.381H8.09v-.64l-.28.64H6.254l-.269-.64v.62H2.981l-.341-.832h-.772l-.341.832H.002V32h31.715v-9.477c-.36.18-.817.24-1.297.24h-2.297v-.34c-.28.22-.76.34-1.219.34h-7.288v-1.2c0-.16-.024-.16-.16-.16h-.1v1.363h-2.4v-1.421c-.397.181-.857.2-1.237.181h-.285v1.22h-2.907l-.72-.823-.76.8H6.326v-5.24h4.813l.691.803.739-.8h3.216c.373 0 .987.04 1.256.3v-.32h2.903c.269 0 .859.06 1.204.3v-.32h4.353v.32c.217-.219.677-.32 1.071-.32h2.52v.32c.259-.2.619-.32 1.12-.32h1.568V.001H.004z"/><path fill="var(--color4, #2e77bc)" d="M28.208 19.94c.005.007.008.016.013.021.013.013.032.013.043.027l-.056-.047zm3.563-2.497h.087v.74h-.087z"/><path fill="var(--color4, #2e77bc)" d="M31.82 20.04v-.007c-.04-.033-.061-.064-.1-.093-.2-.204-.52-.287-1.019-.3l-.48-.016c-.16 0-.259-.009-.36-.04a.282.282 0 0 1-.2-.28c0-.12.04-.213.12-.272.101-.06.2-.067.36-.067h1.631v-.784h-1.711c-.92 0-1.28.583-1.28 1.12 0 1.2 1.04 1.14 1.88 1.16.139 0 .24.02.299.08.061.04.101.141.101.24a.303.303 0 0 1-.12.24c-.06.075-.181.093-.36.093h-1.717v.807h1.716c.56 0 .979-.157 1.2-.48h.04c.12-.179.18-.4.18-.697 0-.32-.06-.52-.18-.701zm-7.024-1.096v-.777h-2.98v3.777h2.98v-.78h-2.093v-.76h2.044v-.779h-2.043v-.68zm-6.783-7.228h.913v3.751h-.912zm-.512 1.008l-.009.008c0-.419-.173-.667-.453-.832-.289-.167-.627-.18-1.08-.18h-2.052v3.76h.899v-1.379h.96c.32 0 .52.04.649.16.163.181.143.504.143.731v.472h.903v-.737c0-.333-.021-.5-.147-.688a1.05 1.05 0 0 0-.44-.316c.229-.093.629-.4.629-1zm-1.14.528h-.02c-.12.072-.26.075-.44.075H14.8v-.831h1.1c.16 0 .32.005.44.067.12.053.2.171.2.333s-.063.293-.179.355zm4.866-.755h.843v-.8h-.859c-.619 0-1.072.14-1.36.44-.381.4-.483.92-.483 1.48 0 .683.164 1.111.48 1.432.309.317.86.413 1.293.413h1.04l.34-.836h1.853l.349.836h1.813v-2.813l1.696 2.813h1.267l.003.003v-3.751h-.912v2.617l-1.573-2.613h-1.36v3.481l-1.511-3.541h-1.339l-1.257 2.96h-.4c-.236 0-.483-.04-.624-.179-.167-.2-.248-.48-.248-.883 0-.38.107-.68.259-.84.177-.18.363-.22.688-.22zm2.224-.144l.619 1.491v.003h-1.24l.621-1.493zM3.173 14.627l.339.837h1.821v-2.94l1.296 2.94h.779l1.297-2.936.02 2.936h.92v-3.747H8.157l-1.076 2.539-1.168-2.54H4.457v3.551L2.94 11.716H1.611L.014 15.463h.96l.347-.835h1.853zm-.917-2.274l.613 1.491-.004.003h-1.22l.609-1.493zm13.552 5.807h-2.856l-1.133 1.231-1.1-1.229H7.128v3.76h3.539l1.14-1.243 1.099 1.24h1.736v-1.253h1.117c.8 0 1.56-.219 1.56-1.26l-.008-.004c0-1.04-.797-1.24-1.504-1.24zm-5.581 2.977l-.019-.003H8.027v-.743h1.96v-.765h-1.96v-.68h2.24l.977 1.093-1.019 1.099zm3.522.44l-1.373-1.529 1.373-1.477v3.004zM15.82 19.9h-1.18v-.956h1.18c.32 0 .56.131.56.459 0 .324-.2.496-.56.496zm-2.531-7.403v-.781h-2.983v3.751h2.983v-.773H11.2v-.752h2.036v-.768H11.2v-.676z"/></symbol><symbol id="icon-mastercard" viewBox="0 0 32 32"><title>mastercard</title><path fill="var(--color5, #eb001b)" d="M15.124 24.041c.077.065.16.131.241.195a9.854 9.854 0 0 1-5.476 1.651A9.885 9.885 0 0 1 0 16c0-5.46 4.427-9.888 9.888-9.888a9.84 9.84 0 0 1 5.473 1.651c-.08.068-.16.131-.22.2A10.62 10.62 0 0 0 11.46 16c0 3.081 1.335 6.013 3.664 8.041zm6.988-17.929a9.832 9.832 0 0 0-5.473 1.651c.08.068.16.131.22.2A10.62 10.62 0 0 1 20.54 16a10.67 10.67 0 0 1-3.664 8.041c-.077.065-.16.131-.241.195a9.849 9.849 0 0 0 5.476 1.651A9.885 9.885 0 0 0 32 16c0-5.459-4.427-9.888-9.888-9.888zM16 8.232A9.852 9.852 0 0 0 12.226 16 9.85 9.85 0 0 0 16 23.769 9.853 9.853 0 0 0 19.774 16 9.852 9.852 0 0 0 16 8.232z"/></symbol><symbol id="icon-search" viewBox="0 0 32 32"><title>search</title><path d="M16 32c-4.275 0-8.291-1.664-11.315-4.685S0 20.275 0 16.002c0-4.275 1.664-8.291 4.685-11.315S11.725 0 16 0c4.275 0 8.291 1.664 11.315 4.687S32 11.727 32 16.002c0 4.275-1.664 8.291-4.685 11.313S20.275 32 16 32zm-2.106-13.474c-2.553 0-4.632-2.078-4.632-4.632s2.078-4.632 4.632-4.632c2.553 0 4.632 2.078 4.632 4.632s-2.078 4.632-4.632 4.632zm5.061-9.692c-1.351-1.351-3.151-2.097-5.061-2.097s-3.71.746-5.059 2.097c-1.352 1.352-2.099 3.151-2.099 5.061s.746 3.712 2.099 5.061a7.115 7.115 0 0 0 5.059 2.097 7.126 7.126 0 0 0 3.832-1.108l4.502 4.909c.241.264.579.409.93.409a1.262 1.262 0 0 0 .931-2.117l-4.502-4.911a7.098 7.098 0 0 0 1.465-4.34c0-1.91-.744-3.712-2.097-5.061z"/></symbol><symbol id="icon-logo" viewBox="0 0 69 32"><title>logo</title><path d="M9.125 13.515v-.036c.576-1.099.721-1.765.721-3.225V3.588c0-1.459-.144-2.126-.721-3.225V.327c2.648 0 3.261-.072 4.72-.072 3.891 0 4.576 1.711 4.576 3.081 0 1.423-.721 2.612-2.45 3.189 2.324.396 3.135 1.801 3.135 3.315 0 2.054-1.495 3.675-5.242 3.675H9.126zm4.882-7.044c1.819 0 2.432-1.621 2.432-3.027 0-1.819-1.027-2.828-2.9-2.828-.703 0-1.207.054-1.621.18v5.675h2.09zm-.397 6.683c2.216 0 3.315-1.297 3.315-3.225 0-1.802-.883-3.099-2.756-3.099h-2.252v6.107c.432.126.991.216 1.693.216zm13.169.631c-3.387 0-6.774-3.027-6.774-6.846S23.392.057 26.779.057s6.81 3.063 6.81 6.882-3.423 6.846-6.81 6.846zm0-.361c3.117 0 4.522-2.738 4.522-6.485 0-3.711-1.405-6.521-4.522-6.521-3.099 0-4.486 2.81-4.486 6.521 0 3.693 1.387 6.485 4.486 6.485zm9.314-11.205l8.359 11.349.649-.054V3.912c0-1.621.234-2.288 1.099-3.549V.327h-2.594v.036c.865 1.243 1.099 1.946 1.099 3.549l.054 6.666L37.211.327h-2.882v.036c1.009.811 1.315 1.315 1.405 2.504v7.062c0 1.603-.198 2.306-1.099 3.549v.036h2.774v-.036c-1.009-1.261-1.243-1.928-1.243-3.549l-.072-7.71zm11.421 11.26c.576-.955.721-1.495.721-2.738V3.103c0-1.243-.144-1.783-.721-2.738V.329c2.252 0 2.558-.072 4.936-.072 4.486 0 7.206 2.342 7.206 6.612 0 4.306-2.576 6.648-7.206 6.648h-4.936v-.036zM50.307.616v12.592l2-.054c3.693-.09 5.062-2.126 5.062-6.035 0-4.468-1.639-6.503-5.08-6.503h-1.982zM7.909 21.855l-.36-3.261a8.713 8.713 0 0 0-2.936-.522c-2.162 0-4.161.955-4.161 3.441 0 2.342 1.892 3.243 3.765 4.161 1.495.721 2.792 1.585 2.792 3.297 0 1.315-.793 2.468-2.432 2.468S1.532 30.304.145 27.71l-.144.054.36 3.333c1.207.45 2.486.703 3.711.703 2.54 0 4.72-1.135 4.72-3.837 0-2.504-1.838-3.441-3.621-4.306-1.603-.775-3.117-1.495-3.117-3.207 0-1.225.739-2.018 1.964-2.018 1.279 0 2.468.811 3.729 3.477l.162-.054zm9.62 9.674v-.036c-.595-1.117-.721-1.729-.721-3.225v-9.62l1.964.072c.811.054 2.072 2.072 3.045 3.387l.144-.054-.685-3.711H10.269l-.685 3.711.144.054c.919-1.315 2.252-3.333 3.045-3.387l1.964-.072v9.62c0 1.459-.144 2.126-.721 3.225v.036h3.513zm5.566-.036c.576-1.099.721-1.765.721-3.225v-6.666c0-1.459-.144-2.126-.721-3.225v-.036h4.594c3.261 0 4.558 1.261 4.558 3.153 0 1.513-.811 2.756-2.612 3.333l2.144 4.198c.757 1.513 1.153 1.91 2.09 2.378v.126h-3.171l-3.243-6.359h-1.567v3.099c0 1.495.126 2.108.721 3.225v.036h-3.513v-.036zm4.198-12.79h-.54c-.234 0-.522 0-.865.018v6.089h1.405c2.252 0 2.846-1.549 2.846-3.333 0-1.639-.631-2.774-2.846-2.774zm16.664 12.826l.793-3.567-.144-.054c-1.009 1.387-2.396 3.171-3.873 3.225l-3.207.126v-6.197h1.549c.865 0 1.657 1.189 2.234 1.82h.162v-4.071h-.162c-.631.685-1.351 1.892-2.234 1.892h-1.549v-6.089l3.045.126c.793.054 2.09 1.856 3.045 2.864l.144-.054-.703-3.207h-8.323v.036c.468 1.099.703 1.802.703 3.009v7.098c0 1.189-.234 1.928-.703 3.009v.036h9.224zm11.169 0l.793-3.567-.144-.054c-1.009 1.387-2.396 3.171-3.873 3.225l-3.207.126v-6.197h1.549c.865 0 1.657 1.189 2.234 1.82h.162v-4.071h-.162c-.631.685-1.351 1.892-2.234 1.892h-1.549v-6.089l3.045.126c.793.054 2.09 1.856 3.045 2.864l.144-.054-.703-3.207h-8.323v.036c.468 1.099.703 1.802.703 3.009v7.098c0 1.189-.234 1.928-.703 3.009v.036h9.224zm9.26 0v-.036c-.594-1.117-.721-1.729-.721-3.225v-9.62l1.964.072c.811.054 2.072 2.072 3.045 3.387l.144-.054-.685-3.711H57.126l-.685 3.711.144.054c.919-1.315 2.252-3.333 3.045-3.387l1.964-.072v9.62c0 1.459-.144 2.126-.721 3.225v.036h3.513z"/></symbol><symbol id="icon-instagram" viewBox="0 0 32 32"><title>instagram</title><path d="M9.333 1.333a7.965 7.965 0 0 0-3.06.607 8.006 8.006 0 0 0-4.94 7.393v13.333a7.965 7.965 0 0 0 2.344 5.657 7.97 7.97 0 0 0 5.656 2.342h13.333a7.965 7.965 0 0 0 5.657-2.344 7.97 7.97 0 0 0 2.342-5.656V9.332a7.965 7.965 0 0 0-2.344-5.657 7.97 7.97 0 0 0-5.656-2.342zm0 2.667h13.333a5.3 5.3 0 0 1 3.771 1.563A5.329 5.329 0 0 1 28 9.334v13.333a5.3 5.3 0 0 1-1.563 3.771 5.329 5.329 0 0 1-3.771 1.563H9.333a5.3 5.3 0 0 1-3.771-1.563 5.329 5.329 0 0 1-1.563-3.771V9.334a5.3 5.3 0 0 1 1.563-3.771A5.329 5.329 0 0 1 9.333 4zm13.319 10.964a6.738 6.738 0 0 0-1.592-3.423 6.666 6.666 0 0 0-1.816-1.456 6.602 6.602 0 0 0-2.196-.736 6.526 6.526 0 0 0-1.969-.003 6.665 6.665 0 0 0-2.448.873 6.68 6.68 0 0 0-3.041 4.104c-.207.827-.257 1.705-.125 2.596s.436 1.717.873 2.448c.455.759 1.052 1.412 1.749 1.928s1.496.899 2.353 1.115c.827.207 1.705.257 2.596.125s1.717-.436 2.448-.873c.759-.455 1.412-1.052 1.928-1.749s.899-1.496 1.115-2.353a6.653 6.653 0 0 0 .125-2.596zm-2.637.392a3.97 3.97 0 0 1-.744 2.969c-.312.42-.704.779-1.157 1.051a4 4 0 0 1-4.437-.22 4.024 4.024 0 0 1-1.051-1.157 4 4 0 0 1 .22-4.437c.312-.42.704-.779 1.157-1.051a4 4 0 0 1 2.628-.527 3.963 3.963 0 0 1 2.424 1.316c.5.571.84 1.284.96 2.057zm4.652-6.689a1.333 1.333 0 1 0-2.667 0 1.333 1.333 0 0 0 2.667 0z"/></symbol><symbol id="icon-mail" viewBox="0 0 32 32"><title>mail</title><path d="M4 10.561l11.236 7.865c.453.313 1.06.328 1.529 0L28 10.561V24a1.312 1.312 0 0 1-.393.94 1.312 1.312 0 0 1-.94.393H5.334a1.312 1.312 0 0 1-.94-.393 1.312 1.312 0 0 1-.393-.94zM1.333 8.016V24c0 .537.108 1.053.303 1.524.204.492.503.933.871 1.303s.811.668 1.303.871a3.98 3.98 0 0 0 1.524.303h21.333a3.98 3.98 0 0 0 1.524-.303c.492-.204.933-.503 1.303-.871s.668-.811.871-1.303A3.98 3.98 0 0 0 30.668 24V8v-.023a3.976 3.976 0 0 0-.303-1.5c-.204-.492-.503-.933-.871-1.303s-.811-.668-1.303-.871a3.962 3.962 0 0 0-1.524-.304H5.334a3.98 3.98 0 0 0-1.524.303c-.492.204-.933.503-1.303.871a3.996 3.996 0 0 0-1.174 2.804V8zm26.526-.611L16 15.705l-11.859-8.3c.064-.127.149-.244.251-.345.127-.127.275-.227.439-.293.155-.064.324-.1.503-.1h21.333a1.312 1.312 0 0 1 .94.393c.101.101.187.219.251.345z"/></symbol><symbol id="icon-menu" viewBox="0 0 32 32"><title>menu</title><path d="M4 17.333h24a1.333 1.333 0 0 0 0-2.666H4a1.333 1.333 0 0 0 0 2.666zm0-8h24a1.333 1.333 0 0 0 0-2.666H4a1.333 1.333 0 0 0 0 2.666zm0 16h24a1.333 1.333 0 0 0 0-2.666H4a1.333 1.333 0 0 0 0 2.666z"/></symbol><symbol id="icon-play1" viewBox="0 0 32 32"><title>play1</title><path d="M7.388 2.879A1.333 1.333 0 0 0 5.334 4v24a1.333 1.333 0 0 0 2.055 1.121l18.667-12a1.333 1.333 0 0 0 0-2.243zM8 6.443L22.868 16 8 25.557z"/></symbol><symbol id="icon-plus" viewBox="0 0 32 32"><title>plus</title><path d="M6.667 17.333h8v8a1.333 1.333 0 0 0 2.666 0v-8h8a1.333 1.333 0 0 0 0-2.666h-8v-8a1.333 1.333 0 0 0-2.666 0v8h-8a1.333 1.333 0 0 0 0 2.666z"/></symbol><symbol id="icon-bed" viewBox="0 0 20 20"><title>bed</title><path d="M17.5 18h-1a.5.5 0 0 1 0-1h1a.5.5 0 0 1 0 1zM2.5 18h-1a.5.5 0 0 1 0-1h1a.5.5 0 0 1 0 1zM18.658 11.393L16.29 4.29c-.199-.596-.768-1.086-1.388-1.24a3.005 3.005 0 0 0-.074-.27c-.227-.68-.616-.781-.828-.781h-4a.71.71 0 0 0-.5.213.71.71 0 0 0-.5-.213H5c-.212 0-.601.102-.828.781a2.633 2.633 0 0 0-.074.27c-.621.154-1.19.643-1.388 1.24L.342 11.393A7.846 7.846 0 0 0 0 13.5v2c0 .827.673 1.5 1.5 1.5h16c.827 0 1.5-.673 1.5-1.5v-2c0-.606-.15-1.532-.342-2.107zM10.157 3h3.686c.07.157.157.514.157 1s-.087.843-.157 1h-3.686c-.07-.157-.157-.514-.157-1s.087-.843.157-1zm-5 0h3.686c.07.157.157.514.157 1s-.087.843-.157 1H5.157C5.087 4.843 5 4.486 5 4s.087-.843.157-1zM3.658 4.607a.907.907 0 0 1 .345-.429c.014.388.072.752.169 1.041.227.68.616.781.828.781h4a.71.71 0 0 0 .5-.213A.71.71 0 0 0 10 6h4c.212 0 .601-.102.828-.781a3.84 3.84 0 0 0 .169-1.041c.16.113.291.267.345.429L16.14 7H2.861l.798-2.393zM2.527 8h13.946l1.236 3.709c.032.095.062.204.091.321a1.482 1.482 0 0 0-.3-.03h-16c-.103 0-.203.01-.3.03.029-.117.059-.226.091-.321L2.528 8zM18 15.5a.5.5 0 0 1-.5.5h-16a.5.5 0 0 1-.5-.5v-2a.5.5 0 0 1 .5-.5h16a.5.5 0 0 1 .5.5v2z"/></symbol><symbol id="icon-palette" viewBox="0 0 20 20"><title>palette</title><path d="M6.5 8C5.673 8 5 7.327 5 6.5S5.673 5 6.5 5 8 5.673 8 6.5 7.327 8 6.5 8zm0-2a.5.5 0 1 0 0 1 .5.5 0 0 0 0-1zM3.5 11C2.673 11 2 10.327 2 9.5S2.673 8 3.5 8 5 8.673 5 9.5 4.327 11 3.5 11zm0-2a.5.5 0 1 0 0 1 .5.5 0 0 0 0-1zM10.5 7C9.673 7 9 6.327 9 5.5S9.673 4 10.5 4s1.5.673 1.5 1.5S11.327 7 10.5 7zm0-2a.5.5 0 1 0 0 1 .5.5 0 0 0 0-1z"/><path d="M10 19c-2.655 0-5.155-.874-7.04-2.461a8.543 8.543 0 0 1-2.161-2.701c-.531-1.057-.8-2.18-.8-3.338s.269-2.282.8-3.338A8.543 8.543 0 0 1 2.96 4.461C4.844 2.874 7.344 2 10 2s5.155.874 7.04 2.461a8.543 8.543 0 0 1 2.161 2.701c.531 1.057.8 2.18.8 3.338 0 1.852-.825 2.512-1.597 2.512-.645 0-1.309-.452-1.822-1.239-.324-.497-.666-.771-.963-.771a.576.576 0 0 0-.299.091c-.562.336-.23 1.245.018 1.756.802 1.654.868 3.098.192 4.178-.82 1.31-2.681 1.974-5.53 1.974zm0-16c-4.963 0-9 3.364-9 7.5S5.037 18 10 18c1.366 0 2.474-.159 3.293-.473.649-.249 1.117-.596 1.39-1.032.611-.976.204-2.284-.245-3.21-.96-1.98-.063-2.793.368-3.051a1.57 1.57 0 0 1 .813-.233c.458 0 1.142.213 1.801 1.226.377.579.766.785.984.785.357 0 .597-.608.597-1.512 0-4.136-4.037-7.5-9-7.5z"/><path d="M11 16c-1.103 0-2-.897-2-2s.897-2 2-2 2 .897 2 2-.897 2-2 2zm0-3c-.551 0-1 .449-1 1s.449 1 1 1 1-.449 1-1-.449-1-1-1z"/></symbol><symbol id="icon-bag2" viewBox="0 0 20 20"><title>bag2</title><path d="M19.997 19.438l-.998-13.974A.5.5 0 0 0 18.5 5h-2.293l-3.854-3.854a.5.5 0 0 0-.707 0l-.5.5a.5.5 0 0 0 .707.707l.146-.146L14.792 5h-1.586L8.852.646a.5.5 0 0 0-.707 0L3.791 5H1.498a.5.5 0 0 0-.499.464l-1 14a.497.497 0 0 0 .499.535h19.001a.5.5 0 0 0 .496-.562zM8.5 1.707L11.793 5H5.207L8.5 1.707zM1.037 19l.929-13h16.068l.929 13H1.037z"/><path d="M10 14c-1.103 0-2.127-.596-2.884-1.678C6.397 11.294 6 9.937 6 8.5a.5.5 0 0 1 1 0c0 1.234.332 2.388.935 3.249C8.5 12.556 9.233 13 10 13s1.5-.444 2.065-1.251c.603-.861.935-2.015.935-3.249a.5.5 0 0 1 1 0c0 1.437-.396 2.795-1.116 3.822C12.127 13.404 11.102 14 10 14z"/></symbol><symbol id="icon-map-marker" viewBox="0 0 20 20"><title>map-marker</title><path d="M10 20a.5.5 0 0 1-.393-.191c-.057-.073-1.418-1.814-2.797-4.385-.812-1.513-1.46-2.999-1.925-4.416C4.298 9.221 4.001 7.536 4.001 6c0-3.308 2.692-6 6-6s6 2.692 6 6c0 1.536-.298 3.22-.884 5.008-.465 1.417-1.113 2.903-1.925 4.416-1.38 2.571-2.74 4.312-2.797 4.385a.5.5 0 0 1-.393.191zm0-19C7.243 1 5 3.243 5 6c0 3.254 1.463 6.664 2.691 8.951A34.411 34.411 0 0 0 10 18.661a34.38 34.38 0 0 0 2.318-3.726C13.541 12.652 15 9.248 15 6c0-2.757-2.243-5-5-5z"/><path d="M10 9C8.346 9 7 7.654 7 6s1.346-3 3-3 3 1.346 3 3-1.346 3-3 3zm0-5c-1.103 0-2 .897-2 2s.897 2 2 2 2-.897 2-2-.897-2-2-2z"/></symbol><symbol id="icon-dinner" viewBox="0 0 20 20"><title>dinner</title><path d="M8 .5a.5.5 0 0 0-1 0c0 1.306.252 2.397.455 3.274.198.854.353 1.529.13 1.811-.186.234-.717.37-1.581.406A39.697 39.697 0 0 1 6 5.501v-4a.5.5 0 0 0-1 0v4c0 .165-.001.328-.004.49-.861-.037-1.391-.174-1.577-.408-.225-.283-.069-.959.128-1.814C3.749 2.894 4 1.804 4 .502a.5.5 0 0 0-1 0c0 1.189-.237 2.217-.427 3.043-.258 1.118-.461 2.002.064 2.662.39.49 1.101.733 2.333.785-.112 2.79-.516 5.19-.851 7.177-.446 2.644-.74 4.39.012 5.279.311.368.772.555 1.37.555s1.059-.187 1.37-.555c.752-.89.458-2.638.012-5.284-.334-1.985-.738-4.384-.851-7.172 1.235-.05 1.946-.292 2.337-.783.524-.659.32-1.541.062-2.659-.191-.827-.429-1.857-.429-3.048zM6.106 18.799c-.073.086-.215.201-.606.201s-.533-.114-.606-.2c-.452-.535-.145-2.357.211-4.467.129-.762.267-1.585.396-2.467.129.881.267 1.701.395 2.463.356 2.112.663 3.936.211 4.472zM15.882 14.162c-.393-2.331-.881-5.231-.882-8.662v-5a.5.5 0 0 0-.934-.248c-2.019 3.534-3.016 8.931-3.058 9.159a.499.499 0 0 0 .492.59h2.235c-.175 1.544-.409 2.935-.617 4.166-.446 2.644-.74 4.39.012 5.279.311.368.772.555 1.37.555s1.059-.187 1.37-.555c.752-.89.458-2.638.012-5.284zM12.111 9c.248-1.171.882-3.887 1.889-6.317V5.5c0 1.236-.063 2.403-.163 3.5H12.11zm2.995 9.799c-.073.086-.215.201-.606.201s-.533-.114-.606-.2c-.452-.535-.145-2.357.211-4.467.129-.762.267-1.585.396-2.467.129.881.267 1.702.395 2.463.356 2.112.663 3.936.211 4.472z"/></symbol><symbol id="icon-magnifier" viewBox="0 0 20 20"><title>magnifier</title><path d="M18.869 19.162l-5.943-6.484A7.448 7.448 0 0 0 15.001 7.5c0-2.003-.78-3.887-2.197-5.303S9.504 0 7.501 0 3.614.78 2.198 2.197.001 5.497.001 7.5s.78 3.887 2.197 5.303S5.498 15 7.501 15a7.441 7.441 0 0 0 4.688-1.645l5.943 6.483a.497.497 0 0 0 .707.031.5.5 0 0 0 .031-.706zM1 7.5C1 3.916 3.916 1 7.5 1S14 3.916 14 7.5 11.084 14 7.5 14 1 11.084 1 7.5z"/></symbol><symbol id="icon-arrow-left" viewBox="0 0 20 20"><title>arrow-left</title><path d="M.646 10.146l6-6a.5.5 0 0 1 .707.707L2.207 9.999H18.5a.5.5 0 0 1 0 1H2.207l5.146 5.146a.5.5 0 0 1-.708.707l-6-6a.5.5 0 0 1 0-.707z"/></symbol><symbol id="icon-arrow-right" viewBox="0 0 20 20"><title>arrow-right</title><path d="M19.354 10.146l-6-6a.5.5 0 0 0-.707.707l5.146 5.146H1.5a.5.5 0 0 0 0 1h16.293l-5.146 5.146a.5.5 0 0 0 .708.707l6-6a.5.5 0 0 0 0-.707z"/></symbol><symbol id="icon-percent-circle" viewBox="0 0 20 20"><title>percent-circle</title><path d="M5 15a.5.5 0 0 1-.332-.874l9-8a.5.5 0 1 1 .664.748l-9 8A.496.496 0 0 1 5 15z"/><path d="M9.5 20c-2.538 0-4.923-.988-6.718-2.782S0 13.038 0 10.501c0-2.538.988-4.923 2.782-6.718S6.962 1 9.5 1c2.538 0 4.923.988 6.718 2.783S19 7.963 19 10.501s-.988 4.923-2.782 6.717A9.438 9.438 0 0 1 9.5 20zm0-18C4.813 2 1 5.813 1 10.5S4.813 19 9.5 19s8.5-3.813 8.5-8.5S14.187 2 9.5 2z"/><path d="M6.5 10C5.122 10 4 8.878 4 7.5S5.122 5 6.5 5 9 6.122 9 7.5 7.878 10 6.5 10zm0-4C5.673 6 5 6.673 5 7.5S5.673 9 6.5 9 8 8.327 8 7.5 7.327 6 6.5 6zM12.5 16c-1.378 0-2.5-1.122-2.5-2.5s1.122-2.5 2.5-2.5 2.5 1.122 2.5 2.5-1.122 2.5-2.5 2.5zm0-4c-.827 0-1.5.673-1.5 1.5s.673 1.5 1.5 1.5 1.5-.673 1.5-1.5-.673-1.5-1.5-1.5z"/></symbol></defs></svg>